<mxfile host="app.diagrams.net" agent="Mozilla/5.0 (Macintosh; Intel Mac OS X 10_15_7) AppleWebKit/537.36 (KHTML, like Gecko) Chrome/130.0.0.0 Safari/537.36" version="24.8.2" pages="14">
  <diagram id="RrJsrW3fYtOxou36YVPz" name="01 - pg">
    <mxGraphModel dx="1502" dy="926" grid="1" gridSize="10" guides="1" tooltips="1" connect="1" arrows="1" fold="1" page="1" pageScale="1" pageWidth="1920" pageHeight="1200" math="0" shadow="0">
      <root>
        <mxCell id="0" />
        <mxCell id="1" parent="0" />
        <mxCell id="2Ija7sB8CSz23ppRtK8d-5" value="PostgreSQL" style="rounded=0;whiteSpace=wrap;html=1;fillColor=#dae8fc;strokeColor=#6c8ebf;fontStyle=1;fontSize=27;" parent="1" vertex="1">
          <mxGeometry x="650" y="430" width="210" height="80" as="geometry" />
        </mxCell>
      </root>
    </mxGraphModel>
  </diagram>
  <diagram id="2w99x62GFzfLc6YlZeIw" name="02 - data">
    <mxGraphModel dx="546" dy="337" grid="1" gridSize="10" guides="1" tooltips="1" connect="1" arrows="1" fold="1" page="1" pageScale="1" pageWidth="1920" pageHeight="1200" math="0" shadow="0">
      <root>
        <mxCell id="tjIhC9DcmkuhYlb8AZwx-0" />
        <mxCell id="tjIhC9DcmkuhYlb8AZwx-1" parent="tjIhC9DcmkuhYlb8AZwx-0" />
        <mxCell id="tjIhC9DcmkuhYlb8AZwx-46" style="edgeStyle=orthogonalEdgeStyle;rounded=0;orthogonalLoop=1;jettySize=auto;html=1;exitX=0;exitY=0.75;exitDx=0;exitDy=0;fontSize=27;strokeWidth=3;" edge="1" parent="tjIhC9DcmkuhYlb8AZwx-1" source="tjIhC9DcmkuhYlb8AZwx-42" target="tjIhC9DcmkuhYlb8AZwx-45">
          <mxGeometry relative="1" as="geometry" />
        </mxCell>
        <mxCell id="tjIhC9DcmkuhYlb8AZwx-42" value="&lt;b&gt;PostgreSQL&lt;/b&gt;&lt;br&gt;Database" style="rounded=0;whiteSpace=wrap;html=1;fontSize=27;fillColor=#dae8fc;strokeColor=#6c8ebf;" vertex="1" parent="tjIhC9DcmkuhYlb8AZwx-1">
          <mxGeometry x="900" y="350" width="180" height="200" as="geometry" />
        </mxCell>
        <mxCell id="tjIhC9DcmkuhYlb8AZwx-44" style="edgeStyle=orthogonalEdgeStyle;rounded=0;orthogonalLoop=1;jettySize=auto;html=1;exitX=1;exitY=0.5;exitDx=0;exitDy=0;entryX=0;entryY=0.25;entryDx=0;entryDy=0;fontSize=27;strokeWidth=3;" edge="1" parent="tjIhC9DcmkuhYlb8AZwx-1" source="tjIhC9DcmkuhYlb8AZwx-43" target="tjIhC9DcmkuhYlb8AZwx-42">
          <mxGeometry relative="1" as="geometry" />
        </mxCell>
        <mxCell id="tjIhC9DcmkuhYlb8AZwx-43" value="Data" style="rounded=0;whiteSpace=wrap;html=1;fontSize=27;" vertex="1" parent="tjIhC9DcmkuhYlb8AZwx-1">
          <mxGeometry x="660" y="370" width="120" height="60" as="geometry" />
        </mxCell>
        <mxCell id="tjIhC9DcmkuhYlb8AZwx-45" value="Data" style="rounded=0;whiteSpace=wrap;html=1;fontSize=27;" vertex="1" parent="tjIhC9DcmkuhYlb8AZwx-1">
          <mxGeometry x="660" y="470" width="120" height="60" as="geometry" />
        </mxCell>
      </root>
    </mxGraphModel>
  </diagram>
  <diagram id="VhAbTpvrhyN_HAIpAnUq" name="03 - sql">
    <mxGraphModel dx="1502" dy="926" grid="1" gridSize="10" guides="1" tooltips="1" connect="1" arrows="1" fold="1" page="1" pageScale="1" pageWidth="1920" pageHeight="1200" math="0" shadow="0">
      <root>
        <mxCell id="ae1G6SYtuF3z8_hgFvdj-0" />
        <mxCell id="ae1G6SYtuF3z8_hgFvdj-1" parent="ae1G6SYtuF3z8_hgFvdj-0" />
        <mxCell id="ae1G6SYtuF3z8_hgFvdj-8" value="" style="endArrow=classic;html=1;fontSize=32;" parent="ae1G6SYtuF3z8_hgFvdj-1" edge="1">
          <mxGeometry width="50" height="50" relative="1" as="geometry">
            <mxPoint x="540" y="370" as="sourcePoint" />
            <mxPoint x="799.9999999999998" y="370" as="targetPoint" />
          </mxGeometry>
        </mxCell>
        <mxCell id="ae1G6SYtuF3z8_hgFvdj-9" value="" style="endArrow=classic;html=1;fontSize=32;" parent="ae1G6SYtuF3z8_hgFvdj-1" edge="1">
          <mxGeometry width="50" height="50" relative="1" as="geometry">
            <mxPoint x="799.9999999999998" y="505" as="sourcePoint" />
            <mxPoint x="540" y="505" as="targetPoint" />
          </mxGeometry>
        </mxCell>
        <mxCell id="ae1G6SYtuF3z8_hgFvdj-10" value="SELECT * FROM data;....." style="rounded=0;whiteSpace=wrap;html=1;shadow=1;strokeWidth=1;fontSize=16;align=center;fillColor=#f5f5f5;strokeColor=#666666;fontColor=#333333;fontStyle=0" parent="ae1G6SYtuF3z8_hgFvdj-1" vertex="1">
          <mxGeometry x="570" y="340" width="200" height="30" as="geometry" />
        </mxCell>
        <mxCell id="ae1G6SYtuF3z8_hgFvdj-11" value="" style="rounded=0;whiteSpace=wrap;html=1;shadow=1;strokeWidth=1;fontSize=16;align=center;fillColor=#f5f5f5;strokeColor=#666666;fontColor=#333333;fontStyle=0" parent="ae1G6SYtuF3z8_hgFvdj-1" vertex="1">
          <mxGeometry x="580" y="505" width="180" height="45" as="geometry" />
        </mxCell>
        <mxCell id="ae1G6SYtuF3z8_hgFvdj-12" value="data" style="rounded=0;whiteSpace=wrap;html=1;shadow=1;strokeWidth=1;fontSize=16;align=center;fillColor=#ffe6cc;strokeColor=#d79b00;fontStyle=0" parent="ae1G6SYtuF3z8_hgFvdj-1" vertex="1">
          <mxGeometry x="590" y="512.5" width="50" height="30" as="geometry" />
        </mxCell>
        <mxCell id="ae1G6SYtuF3z8_hgFvdj-13" value="data" style="rounded=0;whiteSpace=wrap;html=1;shadow=1;strokeWidth=1;fontSize=16;align=center;fillColor=#ffe6cc;strokeColor=#d79b00;fontStyle=0" parent="ae1G6SYtuF3z8_hgFvdj-1" vertex="1">
          <mxGeometry x="645" y="512.5" width="50" height="30" as="geometry" />
        </mxCell>
        <mxCell id="ae1G6SYtuF3z8_hgFvdj-14" value="data" style="rounded=0;whiteSpace=wrap;html=1;shadow=1;strokeWidth=1;fontSize=16;align=center;fillColor=#ffe6cc;strokeColor=#d79b00;fontStyle=0" parent="ae1G6SYtuF3z8_hgFvdj-1" vertex="1">
          <mxGeometry x="700" y="512.5" width="50" height="30" as="geometry" />
        </mxCell>
        <mxCell id="ae1G6SYtuF3z8_hgFvdj-15" value="&lt;i&gt;SQL Query&lt;/i&gt;" style="text;html=1;strokeColor=none;fillColor=none;align=center;verticalAlign=middle;whiteSpace=wrap;rounded=0;shadow=1;fontSize=16;" parent="ae1G6SYtuF3z8_hgFvdj-1" vertex="1">
          <mxGeometry x="620" y="380" width="100" height="20" as="geometry" />
        </mxCell>
        <mxCell id="ae1G6SYtuF3z8_hgFvdj-16" value="&lt;i&gt;Result of query&lt;/i&gt;" style="text;html=1;strokeColor=none;fillColor=none;align=center;verticalAlign=middle;whiteSpace=wrap;rounded=0;shadow=1;fontSize=16;" parent="ae1G6SYtuF3z8_hgFvdj-1" vertex="1">
          <mxGeometry x="605" y="555" width="130" height="20" as="geometry" />
        </mxCell>
        <mxCell id="ae1G6SYtuF3z8_hgFvdj-17" value="Client" style="rounded=0;whiteSpace=wrap;html=1;shadow=1;strokeWidth=1;fontSize=32;align=center;fillColor=#e1d5e7;strokeColor=#9673a6;fontStyle=1" parent="ae1G6SYtuF3z8_hgFvdj-1" vertex="1">
          <mxGeometry x="370" y="300" width="170" height="290" as="geometry" />
        </mxCell>
        <mxCell id="L5SqyeYinDyHV-ubjHAI-0" value="&lt;b&gt;PostgreSQL&lt;/b&gt;&lt;br&gt;Database" style="rounded=0;whiteSpace=wrap;html=1;fontSize=27;fillColor=#dae8fc;strokeColor=#6c8ebf;" parent="ae1G6SYtuF3z8_hgFvdj-1" vertex="1">
          <mxGeometry x="800" y="300" width="170" height="290" as="geometry" />
        </mxCell>
      </root>
    </mxGraphModel>
  </diagram>
  <diagram id="oXk765t6IDgrLUE9YvFH" name="04 - sql">
    <mxGraphModel dx="1502" dy="926" grid="1" gridSize="10" guides="1" tooltips="1" connect="1" arrows="1" fold="1" page="1" pageScale="1" pageWidth="1920" pageHeight="1200" math="0" shadow="0">
      <root>
        <mxCell id="hSnGnxF8W0b-h6a69UVP-0" />
        <mxCell id="hSnGnxF8W0b-h6a69UVP-1" parent="hSnGnxF8W0b-h6a69UVP-0" />
        <mxCell id="hSnGnxF8W0b-h6a69UVP-2" style="edgeStyle=orthogonalEdgeStyle;rounded=0;orthogonalLoop=1;jettySize=auto;html=1;exitX=1;exitY=0.5;exitDx=0;exitDy=0;strokeWidth=1;fontSize=12;" parent="hSnGnxF8W0b-h6a69UVP-1" source="hSnGnxF8W0b-h6a69UVP-3" edge="1">
          <mxGeometry relative="1" as="geometry">
            <mxPoint x="590" y="354" as="targetPoint" />
          </mxGeometry>
        </mxCell>
        <mxCell id="hSnGnxF8W0b-h6a69UVP-3" value="Read data" style="rounded=0;whiteSpace=wrap;html=1;fontSize=22;align=center;fillColor=#dae8fc;strokeColor=#6c8ebf;" parent="hSnGnxF8W0b-h6a69UVP-1" vertex="1">
          <mxGeometry x="410" y="336.5" width="150" height="35" as="geometry" />
        </mxCell>
        <mxCell id="hSnGnxF8W0b-h6a69UVP-4" style="edgeStyle=orthogonalEdgeStyle;rounded=0;orthogonalLoop=1;jettySize=auto;html=1;exitX=1;exitY=0.5;exitDx=0;exitDy=0;strokeWidth=1;fontSize=12;" parent="hSnGnxF8W0b-h6a69UVP-1" source="hSnGnxF8W0b-h6a69UVP-5" edge="1">
          <mxGeometry relative="1" as="geometry">
            <mxPoint x="590" y="249.03999999999996" as="targetPoint" />
          </mxGeometry>
        </mxCell>
        <mxCell id="hSnGnxF8W0b-h6a69UVP-5" value="Add data" style="rounded=0;whiteSpace=wrap;html=1;fontSize=22;align=center;fillColor=#dae8fc;strokeColor=#6c8ebf;" parent="hSnGnxF8W0b-h6a69UVP-1" vertex="1">
          <mxGeometry x="410" y="231.54" width="150" height="35" as="geometry" />
        </mxCell>
        <mxCell id="hSnGnxF8W0b-h6a69UVP-6" style="edgeStyle=orthogonalEdgeStyle;rounded=0;orthogonalLoop=1;jettySize=auto;html=1;exitX=1;exitY=0.5;exitDx=0;exitDy=0;strokeWidth=1;fontSize=12;" parent="hSnGnxF8W0b-h6a69UVP-1" source="hSnGnxF8W0b-h6a69UVP-7" edge="1">
          <mxGeometry relative="1" as="geometry">
            <mxPoint x="590" y="470.26" as="targetPoint" />
          </mxGeometry>
        </mxCell>
        <mxCell id="hSnGnxF8W0b-h6a69UVP-7" value="Update data" style="rounded=0;whiteSpace=wrap;html=1;fontSize=22;align=center;fillColor=#dae8fc;strokeColor=#6c8ebf;" parent="hSnGnxF8W0b-h6a69UVP-1" vertex="1">
          <mxGeometry x="410" y="452.74" width="150" height="35" as="geometry" />
        </mxCell>
        <mxCell id="hSnGnxF8W0b-h6a69UVP-8" style="edgeStyle=orthogonalEdgeStyle;rounded=0;orthogonalLoop=1;jettySize=auto;html=1;exitX=1;exitY=0.5;exitDx=0;exitDy=0;strokeWidth=1;fontSize=12;" parent="hSnGnxF8W0b-h6a69UVP-1" source="hSnGnxF8W0b-h6a69UVP-9" edge="1">
          <mxGeometry relative="1" as="geometry">
            <mxPoint x="590" y="617.52" as="targetPoint" />
          </mxGeometry>
        </mxCell>
        <mxCell id="hSnGnxF8W0b-h6a69UVP-9" value="Delete data" style="rounded=0;whiteSpace=wrap;html=1;fontSize=22;align=center;fillColor=#dae8fc;strokeColor=#6c8ebf;" parent="hSnGnxF8W0b-h6a69UVP-1" vertex="1">
          <mxGeometry x="410" y="600" width="150" height="35" as="geometry" />
        </mxCell>
        <mxCell id="hSnGnxF8W0b-h6a69UVP-10" value="" style="shape=image;verticalLabelPosition=bottom;labelBackgroundColor=#ffffff;verticalAlign=top;aspect=fixed;imageAspect=0;image=data:image/png,iVBORw0KGgoAAAANSUhEUgAAAegAAACKCAMAAABWxSnbAAAAt1BMVEVHcEwqNTxVTmw2QEfp7e0nMzn+//8mMjj////HkuqbeLlHRVxkV31KkOLCj+QtOD+IbaXY3N1zX43R1tdncXU+SU68i95TXWJ/h4uTc7Hn6+yKkpV8ZZe6v8E9P1He4uOfpagyO0SjfMJdZ2uqsbN8hYiVnJ/j5+i/xcbHzc6rgctCQ1dze39GUVZLVltsXIaogMhdU3W1h9bN0tOvhNBOSmSyuLrq8vyOuu2y0POYiK3E2/aNue3BvgSjAAAAAXRSTlMAQObYZgAACbFJREFUeNrtnGt3ojwXhkXDMGgLnlFUAU9o1VqPnVnt//9d784BRYtt1dW+T5n7/mANRkhyZe/s7LiayUD/hu6F/rw8//oNpU6/nl/+SMIC9OszhiS9en6NQP/FYKRbfyVocP4XSGfuX8Vb39EMKHXSHF/gfSXQfH32HIxJWuWEfJ2+z/zhwME5zaSFSWdeuN/GaKRZ3Hu/ZJ5h0P+CST9neJ4EcViqZfPMSYY7cIxFqqUDNEBDAA0BNATQEEBDAA0BNATQEEADNATQEEBDAA0BNATQEEBDAA0BNATQAA0BNATQEEBDAA0BNATQEEBDAA3QGAuAhgAaAmgIoCGAhgAaAmgIoCGABmgIoCGAhgAaAmgIoCGA/iHSZq3a+zXmoypA/3xVGRu8X2PC2ON/ELSdXbQX2VxU7Gb36qrPs8HRFwqHGvZ+mhfu6CbiC9NsXNtv82O52FP5BVmeHrXd3pbLhejf1W/pUyOqqaUdtL5YmUJ5idUom3vdSa6mWTj6Sv5QI5oey7osN+kmRTOup2+ztLvDQ1fxcr3YjfratvgFS/bL2Jhmb9/l6dWuu+bMf4LrblPH8+1iz4r6X6ay0vQc6HpUQ5d2QmxXzXKbZsCDbrSfuOqmJf62vxN01Ky2KjebzTzhNLNyXKiZT+0iXSiLMk1OS4tmbuGC8T0ulljjBwRjRLEoOtvNPwQKdP1NlVPQzeMaNIBtjQ/AtNk9XHuQjdG/EbR9UhbPLjyY9a4y3KWa2+KvZa1MvrLodauu5sI1+hmgy2pSc7s0rgRNFRZvbhyBftcJngQLSZZzNFG0a0AbXWnCWl1ZstEULlszraa40jXzK4n+c+28AvTpHXTtu0EXzc0b9JeC7pkb7TLQ1U7DqI3GrrdTq51d9dch88YNiSrojLRWxfP1wC+Fvrp50OqEXmeoXwzaWIkGU1kFZlnRo4CCEDMvPiivVDySEKq2diV3Peir4qgjFPXXofchW/NLM7U+ywqz+JLtT9zK/g60qI/WoVvZteJhYm7+xaAXb8KQi0F3zaRRehd0gw36HquUGPNkOGeHjIUeY2wtep9jFZ9VGBuN+asctPmaalO1XXAx6I3gmVehl7DtNm+31TXrOm/qdpPgk+RTJ4wxeirbSbY7JhSB7rO9VPzlyFIrNqupXyWXuS3Vmn7I3FLFpd4c2A/DjyL5W0F3LXO11G8CnU0MWT8A7bkDMuaqG43IrEpFe+gyX4JmpUeqxdY1YySHIPDYeK5r/RLzLwVtm5wr4W4ffFCT98siW6emP1jaQ+TVT1TzWKma02vD0khZXq1Wmx1Aa7lcrsRa9JpTz9aoQm0dA03k/ZzompwKtse4H7Mf/dJ+S6vRlL9iR3ZR1L2kiHPTnt4AenEywJ8CzQa63HEOjiLZESsp0I4Yoho3mgn/vMUqthw3t3Yh6KJp8f5ZB5hikd5SR4tkyQEVemby7sBnnnyarR1tpLVYHMHX6JOQcxIDPVZdbLA1/5ZOvZrL4OPQWp38Fpt/LWij0ON7y4eyvQdt9qSCs6DrskJTjWPduBh0SVcDOT76gFxhToKmP4/MFZcq3KBD5cGNTtwtnoBtSy2j8nQ63S7zMhYLYitMke+0s/RyR3M2S5DzZjHRcbtJD4uDTg7GYqD7YrbK1amvLPztLnvmhaMvz4zp2yJPd6yypwmTnPFBwmSjzGNzBWgjCbQujTgBtBONV+TK30uYFI/Lq6UKJZb7xAl5bfp8QxdXtNvKUh+aSbec7Z96NeiGaL68yKeqTq7ba+TexHy5b8l1a9mmaVqFaMNVkNLOgu7JClOVcrGuBj3ag56POmsvDM+BnjG3KnXqBOKgywuh7SGB8kBbv/1KvTjaayx41m5ldvMUjBdFuPZGLebqN4L22UQ1fMyk0ToeY+64Ufv2XLdK/FqKzDVrdHAraG3AWGk8GHTOgW4dwtu9iXxmjdY2Zk+xOqzRepNzLfOFumjeWQ/8Ty/ploPEZ10EuhNruC/X5lyLL8lsUPu/gOb5ouAq0NvE/OFloH0WzrSDh0606MZQaXZJMLbdG/LmsA73+Ns2p700n+T7pOWHmufdCnrA1lG7h2o7RZHbvDGJtpLfDpp2SdurQOfMpJD1ItC2CnrOr9H9xNXyM1E3xdxdFUtELbKFcRd5N6jxfOkuy3OQUw1lbHgL6BZbJ6fLZ+xcVPnFoBcq+ro8M0Zhd3AbaOLbjzadyaBrSbHqp0AHK+W8D/v9pWkFHHxR2Dnv9l1inMGnV/VG0OSKzsRZ61hUaX/4Y4ZbQS+jLYf2pCb15aCDujoYiQePF4F+ZHKw9Nk50OQCJ9p1hxpLdVqlb8ymuGALb03d4I5o2S7LOkmpVW3NJvpHoMdvtwEx0HaJnWycIqOoxFI/PETRvhJ0wTLzWz4803y0zUwCvewq6UmguTN4KtBHubvVk3YNaC1kY/7FmStNOwH03GUDPotqfuPSzFhTJkz4hWLAz+lkOZ4kySYGlMKkd/ypj4PhWdAjFvLJWcslJ0zIpFsi/Og4su/ekBe1Vsxb8Aww638haF0TR/Gb/Gq/++T7aEupGYGOVI/20VENFcfy3x1YT3w33uteFYwNGfP8ETmzDs96JoE2ZiELx7u1y0rBZaD1XN2U84/vrB+oq3XhoeJpTwrZuok3bbnMXXc8xtby3p1Khafo6bUSZbJyJRZ2BhNX2meVfxQyj16lJWsjstZdh760E8UdY+FksKPyQDvKjPW/1HUb3eZG/OoiXzBOEyZqb1k4/blI7Bcm5f1d+FSxnhb6lfvoGT/RKA2NWiUMkkEb8w6f96XW5Ycad1FDsz2a1/XmVJ1pHc5ipmd/YuKM5VPtaGHda5+ynIuTjkojMvdIkUevTlx+XDNTXKtj3lc2iZ/D0bc8+8uDMa2wJZ986w8Egm33llto877wffo7KV997uSuaGc8Ea0Vpno89v1Uy5yP0laB49T0d+5pO058euq1/uNR7KU3GPv6FOhP0vf9XuV7n7o7e1Tzj4JOqXTvmuNogP5xehTHsgCdeg3PHdQAdLqk2RpAQwAN0AAN0BBAQwANATQE0BBAQwANATQE0AANATQE0BBAQwANATQE0BBAQwANATRAQwANATQE0BBAQwANATQE0BBAAzQE0BBAQwANATQE0BBAQwANATQE0AANATQE0NB/HfQvetUwGGmWLUA/06uDwUizHEL8nHkh2j4GI83yCfRL5s9vmHT6Dfr3a+ae+24PpNPL2eOe+z5zL0z6t+8gIkuhNMcXeF8J9P1f/u7XbyiVEmD/3nPQkjSUXhFnAfr+zzMGI716fuWM/wfPcLQQh6/PGQAAAABJRU5ErkJggg==;" parent="hSnGnxF8W0b-h6a69UVP-1" vertex="1">
          <mxGeometry x="590" y="321.76" width="228" height="64.48" as="geometry" />
        </mxCell>
        <mxCell id="hSnGnxF8W0b-h6a69UVP-11" value="" style="shape=image;verticalLabelPosition=bottom;labelBackgroundColor=#ffffff;verticalAlign=top;aspect=fixed;imageAspect=0;image=data:image/png,iVBORw0KGgoAAAANSUhEUgAAAdYAAAFcCAMAAABC72/WAAABU1BMVEUmMjjD6I3Dj+UsNjvHkur+///3dmn///8nMznp7e1VTmxIRl7g5OQxPUG6v8HZ3t4tOD5cZmqbeLnR1tekq60pNTuutLa9jN84QUpPSmVzfIBJW0s0P0U+QFKboqRyX4zi5+fBxshud3vo7OxNV1xUXmOjxHyjfMK22YaGjpHl6el+h4qyX1nIzc5KkOJDQ1jkcGRVQUM9SE42NztDTlNFPD+Olpm9Y1tsSUhncXVIU1c5SEKVnJ+yhdMyOUZ8Tkxab1Ssgs2Jbaa84Il/mWiDaZ+zubudvHgnMjhhRUaogMiVdLN7ZZbbbWKdWFRSZVDKZ16PVFCUsXNsg15ieFjxdGdBUkdrW4SlW1aQca1OP0Guz4F5gYVha2/A5YxsXIa5idqFoGt2j2NdU3ViVnpnWYDDZV3q8vyMqW/QaWCNue2y0PNoT2GOuu39/v/E2/bE2/UXWir4AAAX7ElEQVR42uzd60/byBoGcMuZ4+OXOLaDcwNBIJgIJSEHGoCFKAkCCQQJIPiAaBCoSECr7Uqr/f+vx/aMLwkBSlGbyz7Ph+JxxqbMj3fGdlqQ/ufm+z/f/v4PMvb5+9s/3z1QyUX99l9kYvLtO2f9C0MxWfnLZYXqBLpK372NfNFUkbGPWcx7nN8ld13VihIyISlq7voqubhQnSRXV9RlzWMsJil5wYpinbhydVlNDMUkxRSsGImJigpWsCJgRcCKgBUBK1gRsCJgRcCKgBUBK1gRsCJgRcCKgBUBK1gRsCJgRcCKgBWsYAUrAlYErAhYEbCCFQErAlYErAhYEbCCFQErAlYErAhYEbCCFQErAlYErAhYwQrWfytra2rKFJszU/Nij5O1lt8j5zbjLbXnMNPZJwXHRbPm7oqHbRMaQ2CNMxYXm1l26ikxnuyhpyxd86bciUcOe2LhcU0WzaG7azps56AxKqydbrez75A8CtZOZ3pfZmw6qGDP7dTfbruR2b338ZG/fD8tokLj97OqA1m9Mo23mRznrC5N61BmbX9GbcnskO33nKnJ69RX7wBh5KqVz77zWQ9HsErSA2MLousja+cYWwPr+FWri9OMskorLJvmR3Uc4HaADNZxqlbpkDEzyuqU6wy/DpadSj3tnYXBOi7V2mXZaLWqOTELqw9uGceDfmAdq2rdZ9M9k7AkswPvY8clVO97ZmGwjkm1XvPijLDecy1TZjPeHN1+mTW74qULi9Gp1plWa36qy9i02sva5KwP/NJpqudZQx+rSBMWo1OtIt2W1MuaZV2+5npzcTrLvrzIuhL3sgaL0anW5v7+9MGCKMWQ1eSPBk2ZPYhLqhWsrWO2tqrqcT/rjPc4UZ1iTM66kaOzMFhHqVpzjIm3YtKMPfVeCfezHnLGbuTB/jVYR5JVChbINfGw4UXWedmbdNNZ9tTimfbugMA6gqzTrMmfCB6wrPkaa2uFu08x5r+T8xRugnW0WJ0a7OQkyTwVc/BgVnX+8V48YzoIS7TlHwPWUWOVvjDG7puMsa76Eqssy+496MOz25qVkLj/vlUWWYDGUFjdN1YDtMGsjGXbnUeu3vMQYoHJrVcfRzAG1iGxSlIsPtPCoE0cKwJWBKwIWBGwghUBKwJWBKwIWBGwghUBKwJWBKwIWBGwghUBK/JvYE1uL7/eIT1bqgFizFhzZTLSr/bYJcoAYtxYbTJiYJ00VjXZ6JmEzeW7vh6x2W1MwuN+yTRLGkYdrMiIsKY/ztp/ChNQQ2VVi/lqWdO353hzSfcSLK55XbfI9vYJuW092vJOcXtklAuNRNDe1Q3SCqkisIbFqpZsojIRGfy6qEJekv7rBfJjiT1HvBleKycyRGWNqFoXhev0WLQ0IjrCjzAdEmuDKFVXE8WMwa9tE7VarR5hncvlKqTlnMz59z9Oj9koq07GXVqqF6jKFUtU3nW2arNWCVrDYd0s07aouXDnXIR18Nq6G2FNku2VacKgJcGcEvdBaWgNhzVFWuLZznexqr6iWiJdsBYw+Q6X1fIr6+dZF2mWb92RISZhOioCdoispk2lD7LWiEq7XhxOr/LTGSIy8klMwcNi3SS/1H6atUiRiEeKySPv2noJWENhVR3AygdZ60SNip/gIURiN7VIdAut4aytGjU+yGraNLgqawUqx8A1FNbgZvOnWSWLGoPP7XRaBtdQWJeIdt9iTRLVX2Gt0GLvu3SJ4NuB8PbdcFjVAmnuHGreFhIvsebKlHdKOl0fzGpaVHWrMlHKeIWfs468nnUreN6I/GZWabNKZOhV278k3racEBnOn8GSWSKyMrpR5rWnOy8ZRJaTTW/HskV2NVMtU9l7tn+nERlHqQKRhmf9w2KVzIZjRGX/PZt8eLcSXMeqt24XO1MXa2mQurieTrmva6lNUd15yyaixVQdWENjdSfdYv2NRwfqZrKeeK1DLVmLXnqZy8lNE1TDZUXAioAVAStYwQpWBKwIWBGwImAFKwJWBKwIWBGwImAFKwJWBKwIWBGwIj/BuvZ4evq4Fvxb7akw7otT0cxgbMeEdb7Dfy1y9lr8c085+E3JTUmSDlg0bYzteLDm7h2+g9NO0zEzBev+NM+p0zptu8ky2ft4iLEdD9YOy8a9Q66zT361fnnW64DtY1THiDUtB7+U3pTAOimsOcYe+naBdfxZ1SzrgnXy1tYDxro5sE4aq9lmTO48mGCdrPvW2ILMGJO7MyFrc8XLAljHl1WSWk8rjDHWbfU9jjgA6zizuhfEC03GOqpgPY17yYF1zFklyez6tzpYWyeIVTWz7BCsk8YqSW02DdaJY1Wz4hoJrOPPah76F0YPjD2BdUJYOyx77cKaTzLbN8E6IazxNmMsu9LOMnY/79+3yn7iYB3TtVX9spJljLH7BVPqexzBGFjH+ZIpNxNvYdAm9AYHASsCVgSsCFjBioAVASsCVgSsCFjBioAVASsCVgSsCFjBioAVAeuHk9zGb9geYdZGxkvinYflymSkgTmyrFUiIqK597LaZMR++V8udnKyEbaOP+1d7n0KP+vxzc755U7YYevEz0140M5W9IT9p5A2Ti4ve7u45/k09qyb9Xr99i1Wc/mu/6tINn79JHxypijhCG99Vdys+3tuLrz21aVQUs8VP5ch25USMe4/xcYfvP95BDrmnOaPiVhbk2+xzpL2+/9WG6vuiAesW1fK2eXe5YVytcPL8Eq5ON/Zc2A+ix7nytlnnvB74VI5O5ZeOsXWmbK+ennpWK+G1b2ugPUXZm9dufocsqoXyoU736ZXlTPvf+Zv/Ll3zOGUE79aV58N9rqyFzb6T7F35bXdU+wIeOe75OJiRFjTb7QH7XmdVU2/n/W9n/X17Dg1s7UVsn7y9bZ8A1GFx+v+nDuAdUe5CufX56e44S8en4mKdzbW945Xh856pM+ZJb1spYrBrt2UZVdTSX/p1FNSrVG1q3nxnyp39QzfqOiNwaz1km7YtpXx1868rltk626E05LX0COLa7pyZJQL+ZpobutJqZi3bCuf+NmvLLZ64o2/YFX3lCvheBHMujxfRXtQtUb7vnKKVeVCfBt83nBbw2bVqKiTZhBpwjHdILKdtl3iP0NkmbS6QcYikcXHvEKG0CJ9MGuJiIwykX3L2wXyY4keFd5MBofM6URljcgQuzJ0W7FtSyPSP3DLEGWVPitngUHvqJ/58+xz1htFiVzlvnyKP3rao8CqWUlJLRqkmbxOyK4kpFyeaEmwkqbXJXPWpqMfZK2ViqakLuu0uMnNcrkKaTknfqdErVarR1hVnbQ7U90skL0pWA17OyGpDaLi4EFYCnL3ypcXYT1X1p/piHl2fSOs1uONyB2R0/WrW/ixN04hnSnnI8ZqeAN5JxjnNCqJgbXSglX3wBtk136M1a/ARbp9ZW2di7AmhZ5pUUp8dn7snB2eo/eOKZgBqPpjrM5aG/NHPTCJbdycX62fBPJ/rl4pzsWuGt7dOGuo6h858BSiqE9GjJUPW9qgDJ9Ay3wNLRLdCda6X7aVd7FKBcr/IKsubNQS2XOcVSzgFm0PvrxKBdn+MVZn8//snQtT2swax3dJhskiQARE3qIKooooUysWVbxVLNiLxaJ6XkVtVdtpv/8XOHsNCQYB1dPY8/xnGiBsFthfnmsqcF+7R9PW38gCSWsT5WZZ3Xp8sEwLlANDVTcL9J6maLpOIXzwAfIY1lcqmhXETUa+Sl6YLaUp/CJKk/X+sIal6XXHGlHwpqTZJtShBVJ6zMezYaUIj7eK2sq8f4F7VrHvYJ+WosrSzlY+UA+1tyXpseqG5chFy0jdpmBdD3vTw1tY44JWRpkJXeoxJ1bpIHvAar5KZCLpdLZXrCHpCBBakrHgObCqjtCWM40tfnV6UI5lQVU3RTGJdt8UbxdsXSmPYV0neRtMvqBVJ1a5ozvWwQjJFqrxeKRXrGsqP2M753rDGrJk9ogVoa35/YOvZ8axrcPgEih5DC2KMmYeObC6TlHc98/vIW9ba8GyVmmc/VvrWpBUl1h50bMTThKVGC0S8X66Yu0/ZbI3Fd62U2xr54uj6MHLX6jm/f5/v6x0mkI78B9oyKtYZVCtWqzSd2NrqSesJRIM9Rlb5WvxV+sttpppS5n+sGq/2xf9rH0QjZVnAp7fpfnvnEL7KRqK3sRqSI+5TiKmI8pZWJekSXXFGlb7e8dq+YhzQhafK7a2Mqczd5/bctb+Y5YKF1eEWMd35cx9CjeqnsBaUmBUPTOB7Hwn1eqXZOkzIVd+MdbCOmWZtGgl8Io3FGthHVRlkjvWOVkTWxnbs2FlV3VkWNRkorS3rGLrmahrjH1nvfLGFludUzCqP+9eNfYCVjKrIbQWIzFDQWGt2om8TE5Zl+mCPrWalys9JbIaekQLayjLM62Q6h2yM2QkQ4jlH5N5MkYnGVpzx2pGSCaJEGsqTT4n1uLWgl81H4q//ax/i4r/qkx45fjgLW8m+/1nHbHap0DFA/+yZgjteazLRNLVTJ4EZZNusUDymQRlFjcV1giJVOmOwqJq9JHCWDibKdn6tWN0VCKWnZRWSjKlajoym83O2vrEsUQ4khdzlGJU9BC6nVDJczCcoBn0HHoyrL8XqPx+thWUVpaPaRJkuUx2YfT3/MGxFTff7Pv9+/M/j/1t9YoNa9sUW7bg+0ZOSnXsP6bb+T8bW8+pxWYzlh2ZYxHWlJfry7BOjuUJSSdk9DQWq6yVP2Ze2LCa63m2c1WcGWxAPryISnmLiXHOZs0m1tRZoKRS4GqaPl0YRE+HdaF9yZf9C1/sZvh2ng05/in37e1pX/bZ6IMz1Alr2xRfbViL7aCX/yxWZCxNOS9/LU61EiCeMpmTk0O2CyPJqaW7deTk4JI1ZmRqUhNNftvbXhpcu+8q29DalImeVW8+7LXvKn54azh3vDnT+pviqfQ8BY7jFWwfddKeDVlgQS8Qq11uWEGAFQRYAevTYC2EB+8fsBarJmHNXxrWnl4Q1vxvxAoCrCDACgKsgBUEWEGAFQRYQYAVsAJWwAoCrCDACgKsIMAKWDtrKBCw/3DrP4EkMq1do4EAv90MWOI/02uKu8nWNdbR1ohRWHwPYPXp/7E9HNYD6LWu/yMejes+fjvQ+vXlHQ5RPvB9kgPpSEu3sPgecMIb+mdG1zQ1hNCmro+6Y52JCt1KrDOnp9GPPp0fLEbKAdHXsPgewBrVT+n2h65HOT+f4Y7VAWtUjkie6vqNHDkMa+4lrO/1j3yrf6c3N+x37XvHirQNfjYAVs9h/cZ5RvVh3WR0PvWFFZ3yowGr57AGdMZzYziqDyC0w2JlP1h3mNcGrJ7DaoyyLMnUZ96zFHaGbfrBOqPPgLV60Vo1XQ+gAX3nGzPU78xkKdbbUa7P3bDe6PoPwOpFrLTC+YFu9fEAzYhNXd/kWC1ZWN/NcAUUVgp+ILDj06OGqlvFgJlNWHtPYI1SM/2sB0ZpEvya2xzFuvGO6/uddsQNsrcjdN9no70dAX+04Q2sO9RMP+mjhs9nBHikdI2tNwNcmwrrx+iMrp+ayOoyDYsBA/BDGN7AOk5ZvtOH6L/Rcd4b7DVlOtWHN21YYc09hfVG/z7k20DUYgPv9fE+sG4OsyoXsHoTK6U4wPh81r9FeezsucC5bfX1AavHsBqmro+z4uZWf7/B6fVet0b14SRg9aa10mJ1hlWfA/RG1/rCmvTJljBg9R7WGd3HQyW92UB9YUXfoB3hWaw7Ou9CoGFxcc4dq09q2IHV+Cjd8HhrxCdYfC9gNSiSYWG1+vuOWB1tp1ZP+LV0w7b/HRGFxfeEtcK3PvyVWEGAFQRYQYAVBFgBKwiwggArCLCCACsIsAJWEGAFAVYQYAUBVhBgBawgwAoCrCDAeq9SjcbhH34Lu83rO/vMRuMKsD5cdYx3Ww/q9bL4bPV66CGzndTrpu1BqqeDpm3vwFpcjKcB68N1gnHLVnIYN/gdDePUI2czQhV8+GCsqIJrgPXhKmPb4lOsuPwYrOgKV5SZ7+Km9nCsOXmCAdaHaC+E8ZFtLZvC2h6MtVxRjMqXton7xzqN/6LY6vz+ALPtrwGMu2Me/YUDBsbbNqzXOGfcwdrPHyVc40sRnn/h6b0uUwzdg7XmtvPFYa2GR9BEIpIvnMsFGCxlIiRfGJN/3Xoenpyq5guDaDWcjU3Jgy7isWwh/shf663YAOZwqsIpt7Aah43c5fQuT4TKtVrZ5m9rLtZomDlhZjTK1pF9iit16GGtVqN+v16r4GbKjjXUqDWsRK2B29LjkaUXiDVIpuIkHcsTMit2hAnJRrKEBCf5w3WyHgxGSOQ8GwySGD/NjVKWDqEjVh/1ytdXZTvWK56qWFhDDYwvKxg3T9jeS5tl08HbbvMd4ssTjkXFxlBNTJGrq5jLErNrzFS3YQ1N40rrDDu6qjumncuTxEvEGglOGCgUJkFRIQyeLxnIuIiRwpDAStbNkRilPrQYJBz1LMnPhVAyTvKL7nNeTFgye3sXFGuKJ00W1hqlMYROpnGTeZEmT6+umszKTIxPXJeliX8hlLKeNWq4Utf26BTSO2uhOp6u49zRSU6MEVhNB9V2aRFCxMd+YViD3LVeELLmQCMfr5OqgVCVxOn9DLlgTilIzoX/5jtdlCGWRnrFWheLrLDWhekh6lqPeLy8EvnyIfOyl+4xd5sd28p46nIqLWftSuFKsxliE5UtrGbtPqrIiBHiXJkXglUwWiLE8SPpIUJWBdYxuk1wF50hE3RbIjG+rMYUybob42zcUqhXrNvoCOc0C2uNWZ7IhGpqW8ZNfMXodeoX1HBtG1fK1qNpK5kKKaz4MsVfzlRYtfupImMikh97iU74Fb9NtmFFRDxxF6tlpJT8U2UTDKvJkiaJ1aioImUb57jl5djmmpE6VMTv9iMxzrUSnpxKaVNWGpaSXY9UXWXC3agyh/E/+vK4Z8E6YmFNzlYLkXS6I9YYia8KpblTfiqsiCVNQwJBGePrba5DzCyLPtao1dWblxod1rGH1MA4Z6rMWLU7jLJVIadaWbIsURtdqb7MAucOVpr5pTOJeLwTViPbipwcs8v5HbJk9IH1hGU7AmsK21Tm1dAJhVb+RZ+t4fo9LcRD230JM2TtTcleVqsd8Qu7p9V/G9YJQkohZBidnXCEJOaUlp4sZdqWsU5Us5TJ7qGSyQPlNsrlqMEeqXynW+dqxILpsNY2rNQJX9b/D7BmSLhLbA2TbilEOG2pL6xHuKLlcEqUr86Wwy4+LOMG2sZXJq50nMbRkKyoMNtyvXexdilv/hasQ3nVlujohMdI4ck/ksBqVvBRU6Q3TWcLzzjCV9sUUxlPn3S+wmLYsRrTsi9Bj1UwXbCichPnTu7LmF7NJl++tQZlT2Wpo7VOZsnq82BFV/i/7dnva9pAHIDxOwboF6JGNmVgCUjN4RwVKKWwOWCQor4TFATIKjCASIvt//9uuWgV16Rs1BZyPA9QoNhW7+PZ+2HMlnVx2KjsQCY36WOmUfTzhaP4o9m6eDqGMPtzpzxWtezreFT81NoijQ+lZx3LwL45ew2R63xW9Uka37IdXf3sxKxLu0PZniHE2iztXPm9zs7tfd2fWBKj18UL4aPZao8hTE2p6s3h9iCXVXUiHRfur/2BiNyWnrU3kMH4unt+EYh3m8/6uS7ysd319sfIJ2NVRj8ZdGK9MnOz2p4f2E/lKJpm16rFC+Hj2apmfR1N5n292r0PFibWOjam9hermq30pHBC2lOmZulZq+GFiHiB3xpn38hhVdUv9rUO6s1Tfwini6b91Kqt7d16tF7ut6ST7JNV69q/zVZ78RNpvTKz/bLrsGE6YrV/dl60FUu3Bp5fOtbnv7162bzKXuPVC3eqZ+H3t/+HM5qNpv/1A88eXV12Xvs0v4r8UOVnpePBbsv5JazOsXrvdN0K63vWEwlhda5f0lWwOlfLb8FKsBKssBKsBCvBSrASrLASrAQrwUqwwkqwEqwEK8FKsMJKsBKsBCvBSrDCSrASrAQrwQorrLASrAQrwUqwwkqwEqwEK8FKsMJKDrD6DIVL+TvWkKFwqXDHGjAULhXsWJmurk3WikrSLx6u7qh6KWiiNha3EoSsm1xYLYVBxnmnhvcVcqz7oRri6p6qZR1uEobCnZK74ZY1hX1MHhiQ8veQPG4y0D87ft2jSYunmwAAAABJRU5ErkJggg==;" parent="hSnGnxF8W0b-h6a69UVP-1" vertex="1">
          <mxGeometry x="590" y="395.48" width="201.93" height="149.52" as="geometry" />
        </mxCell>
        <mxCell id="hSnGnxF8W0b-h6a69UVP-12" value="" style="shape=image;verticalLabelPosition=bottom;labelBackgroundColor=#ffffff;verticalAlign=top;aspect=fixed;imageAspect=0;image=data:image/png,iVBORw0KGgoAAAANSUhEUgAABJgAAAEICAMAAAAk1L5mAAABZVBMVEUmMjj3dmkqNTvg5OXD6I3HkuonMzn////p7e3+//8sOD5WTm02QEgzPEXo7Oy6wMEwPT56k2VMVlvQ1davtbfb4ODl6emUsnRDVEjW29t9holGRVvA5Yw8TESnyH6dvHilrK6MlJfvc2csOTvK0NG424eNqXA7Rktye35WYGXGzM01REBlRkax1IObeLpDTlM8P1FkbXFHUldrdHi84IlRW2CAm2mszoHlcGVKkOJDOz9SZlBrW4SHj5KmfsaGa6JJW0tgVXhpgFy/xcY/Sk+XnqFNYE0vNTo3ODzZbGKqsbOGomy9jN+1u7yZt3aiWlWiwXuepahthV6XdbV3f4Nec1Z8TkyvhNCSmpxbZGlxSklZQkTEkOeuXliWVlJOP0FPSmV0jWJmb3SIUk/EZV3PaV+Qca7BjuOCio24YVpkellzYI1eZ2w9PUh8ZphYbFNha2+5itu1h9aWtXW71vWOuu3q8vzycvTDAAAs/ElEQVR42uydTU/qShiAmzbTO7dQOBEgQTaakHh0gRwNi5sghKAbIwuiCZB0QVyAiYYcifr77/SLL0GA6xWOPE9ytJ/TTmf68M7bytH+8Xh9efsbAGCjvL28+kbSPC29/QUAsAW8vYZieuFiAMC28OKLCS8BwLagBnQvrphe//pbzTWKlgYAsEGsYsNT06sSk5tfMopcEwDYPEVDmentH+3VjZ7wEgBsh5lcI71qboapwdUAgO3AHc29aG8ETACwXSHTm+Zmvsl7A8CWYLn5b80d0HEtAGBLMBETACAmAADEBACICQAAMQEAYgIAQEwAgJgAABATAABiAgDEBACAmAAAMQEAICYAQEwAAIgJABATYgIAxAQAgJgAADEBACAmAEBMAACICQAQEwAAYgIAQEwAgJgAABATACAmAADEBACICQAAMQEAYkJMAICYAAAQEwAgJgAAxAQAiAkAADEBAGICAEBMAACICQAQEwAAYgIAxAQAgJgAADEBAGynmKKRIVl33lITlrfGjkTC8jql/mOkYAaz9oxd1GQ0WG9FJojOOmp2tL7gzhcikY6/puCV2ZkoIhucRrbUD84NAL61mKpiSNdThpooeWsiwvE3iZT99c1AVNnRLhXPJcGMc9sZnw2IzDpqZbTeO1hJTfj66Yu8+jmYKKLvn+mNf0idBgb47mLqdLvdWyHK6lcptE7THBdTx1Gr+/38TeAhd5Ny3qcamCivCik7vkKiZZemEANvojDrqCV1OKW7W/UrEoqpMiamW29XRzx7v6uBQZuVvlp2S9AE8N3F5I3NhKgOB1li4IjOmJj0G1G2vSFa5Sbrj6jC6CZAicnbIdodKycaxEqm+UGsNpRWSTRFzxqJyacZyMrTY2CuiDO2EAB2RUzNrj+oC8TUCbTjqmk4lJspJs0aiNtpMc0nMiGmysAf1M0T063Im8GmPUImgJ0T03NHOPZITFUhJvPXcyMmTeuK53CjxWKajJi6fdH8QEyFYXGWE+TAAGCHxNQzm+JxJKasmBbBfDFV1M5LR0yTYsoHpcwR0+MoTroVZZoYYNfEJJQFBuZQTEpTzqO1XMRUHjpjccRkTg7l8ko43fliqoxKfhyGZQCwO2LSbceVSvhUrnAjxE2lYy6OmCJjwdWqEVNZ7d2z54opP1pcEkKnjQF2TUy21nWT2MP3mOyuEEI8VwqjiKnpPcYvd0IxVQuFbKTriFtz6YjpnZhML/09R0xNPyE/vR8A7I6YOu69PxSTUs9jUwjhPA43CaiGYvLp9Udh1apP5ZpuHqlpzhPT82gyMhWwAcBuiMlsir6ykzMqUcv2e8FAzY2YqlkPOxRTOZ8XojuWiVo5Ymp6LuvME1N5ImKK0sYAuycmJYpnfVxM7ouShaZwosEmM3JMXXEz7os1xOSlvx9ni+l2PMfkmLQxwA6KyU1/ZyfEpHmvWka0uU/l7OfR25VrPJVreoM0x36c91SuGU72xYAmBthFMWldkS9Mi8kS3vtN857KVcdKWS9iMgfisTRbTKXR+K08LkAA2CExdYToTIsp62829z2m/NhgzlxLTI9iUJ0tJrsXvomwuGAA+KZicqXgi6nQt4bDKd8k88RU6I1JZY2ncmonRx119t/KVUTTDiYGpJgAdlRMJfHsuGKyB6IZcZfYleAbm+a/+V0albNWxOTmuJ9ni8lU1nO/QcXuTwwYAeBbiql6oxCip35WxsVkOyL4I95nIcQg33SEKFuhu3oBNxNiMsviprBUxFRRh+sJ4R67Oi6miBBzIiYzq85j0BSCP+EF2AExvf8GS3/I1A3EpIKUsiOEEM2qqYURU4gzISYt64RaWRAxvf8GS19M5mCumMzCrVJTL0+CCWA3hnKLilNS6BRGb08um+L59FSQWcjqH3zzHADskJh8N21FxZASAGICAEBMAICYAAAQEwAgJsQEAIgJAAAxAQBiAgBATACAmAAAEBMAICYAAMQEAICYAAAxAQAgJgBATF/M6RGtB38obb7G8LuKqZjKWTQf/JHcxw50rsKmxXTW+vXxBvrPi5Wjn7Yh92m9P4p1mvkPYWEXnyJ6Iut8rG5aTCdSnn38+SHl9YplHqe/1ks/kx7FbS9zq8OE1Zv5q1m3SRZ28RlmihMzbVhMOSn3PrnHRjPy4ksv05X0+LXtZX4nMZln562L+6M/oZkXdvH3PTghD7HPpody9+Oz1t7TdIx/d7ha9zPrsva12cOjvb294qIea5492Z9d5maIFv+HOG7FZj6reZIwLqwta2bt8vj04y6+VMwfi7XRz0bFNB0uS+MTijj9+ktlLeqxpyt/bi4uczMcyOSmT+E8LWut87u6lI0ta2Yt8ylphJbMkGbaIjGZnyCmE9nawKXarJiOvrIXb4GYoif7XlD8IGV7u5r5k8T0w5Dn+OdLxfTx/zW5lJimE4P6eJHFmQKYOur0fWy+20b/zz3WtP4XMU2dmH102t6Px1aKrPRVWuT9JvPE9MlyNPUPTiKYNDMrJmOm6/q+7vp/a+alxKQvXnIg4/jn68R02Yob6ZNGMNQ6i3v8DI92FY/nZMxbFjRUKz4+5220n0yla60fIxFdJ2Lp3PXPcJuGzE34IH6gWRd1w6gFH63WfSNnSKP24HcoO36lHyaMA9NuZNKNoBD7MG6k6vvm2hI5urtOpGUmHiYX7uLxmpQnbl321i3zMN7Wjhu5WObqxzAvU0v5CdnlRzTWRTIVyyWHmbxoq2YY8cPw7qrHf/uLgxOdvnyWqkFKptyKXAXpEDWpjn52rRa7t+SD2iM4vXp8yeTK+2a+vMqlY4n6hT3nPEPqS9fcvXw/k0YqOYpE3tU9al3U0omDYth14n7aqx2PL9fMRVWJtEyMdeqpLu5yrzps7uA4HJTG99VdUUunkpP5h99SniKgrxLTr5SU6Zj6dxEGNy7Dz7yaDEkM+53HqMfaSbW3KiUXPoC9UPMZ9/bMXfoLcvJq/JB7MnV5IlMJdVS/L1iGX4LMeZ3elokDmZGyVXN/+h3oLCelkZYyaa8rkWM3MasOJIOb9HBYM3m0bplJuf8QiyVUqcFtcpST6Vo9IRPn7dNlHepWTaqqyaR/O+4l/KqeBHeBEVyCo+ByTV8+a1SRxvAOkimt7ZbpPQy9lzJoifZwahHvmlkVF/MOmvqtzTzPkMTSAyd1+a5UV5FSPmjanLof16SRktJoB10ncMO5lMs189Po6pxrM7u4prekqpr69+A32b68bqdkQi1JTfQ2PSZ/IqAvEpPqw7WiZe21DL+76UeK3KjV7Gh0XxpRRdhGUbXB3XiPjcvMk+4+k8mZYcMfqgDCforXzbB7PUyKSaZO1D11mgnv57tz5QbrLu3fWbaUmT3VPWTiVGv5YxQ7JWtnpv6UWSWzOtljzUP3EdzRVdBBzR/RqDrTtls1bX0xpWKHtoorA0eYdXly6Y1+a0vL7siQmXvbPN3P+Hm4qCFP9kz9OCMT+hwxTV4+U9XgWtbdigRxm27bMXlmpA+L154krGEDNGRt2ZTRVDOrMpJuIxUPMtHZ5xnGGzIVXVpMqfSdrl3WpCzOq3sq09bMYxX6WcuJaaqZNV1dloz8l73z+U1cB+I4Ioo1SkmoCokEvYCEBOSwtCBuS6sqcEHlgIq0RerhqYcWqVXV7v9/eHZsJ85PCC3sr/lK77VQcDz2+JPx2M5OWOuIasZdvNQGa2P6X+kJMGlWfcq2e8f2uNhH3vPyD4Op3IGqmD8pqQI3kiXwc0wkMvN/VDz2FSw/VDq1Rb9OwC5FMhwmRO80ZwCu77uz4JNi+sBfm76fjv2b+zu43HdqBoeeM9gTItI8L9yc4+eYCCGfABOs/AFl8Z9BMq0ejRHztASbQ8woi2HC79ND2WopYEo0n59jUg2xwHXG7P0e/7Mn8z+7p4FJpJv7wZZEo5ReT/an7rjt2Dvnvutg+TOuirgjpdneGIj752g3MKV0M88xKa0TdXFKQ86bucBhE6Dlf9iN7eNyj73g+O+CqSdnU7EOUMCUtiqneqwng+aJiH8m4ERvmcPYOs2ZHL49NfDi7lfhYKqwT1k+9tgU0pSDs1SF9ufAROnX+bLkd13mnEXCdyWbahLMfLdpELstGxrcS1PdLDAlmi+R/LYAmv7772I+0+V0sYrsTIqB6TK/nn7bArR2v0JdDvw6b7c021f8BmpzA3cGk9rNaclvxcUDf5UmNsEmJZXn4fR2gQA6DpiWqQMoJWLK9FjiSGa8Q0P2b2ekZkTHMfqp3hXJnPZ5BiQJpnGQdryXGNwbTAozvgBMLZlFE2ASMcwmFgtmaxTL+gwBXoMBQzLAlGi+FDDZrIeGfVOM6yZvvUIjSwWTYYO2qeTVk5Xv1RyoFYiYRPM1Acxc2+lH3WJgUm8N+WCaS/wQBya8NtyRSzPwYvXFZbkjgclLbeoiEdMUYDLytQHgOY6NBaDVe8HksAvwmAqmx2BkDWeLjsaynulg6oHFrzFq7ZwkSXgsWbeqNXaRA4CJtxgZSsvmO7twOxzWMmo8C6LZbi6YHnPBFNk5NuP1qRXL3qpgIn0NwPKa08x6inl7O6DL7mDqcZOybSdLDosdwJTs5i1gcoO2ExnMTDB5Be6KCKZPqZHa1EUipj4oEl47bNkA4MizCSR2gDfwrksxsspzANubz6tZYJoo16jtCZFuB6BWnc/dw4GJZTYWjMdra+e9eK2YQatgmF+KlHAmmC5zwTSKxqJsDjcGx9wXTKVSpV2DcKqWrGeWRTuASRSRbTuN9ZzdwJTSzVvAZAeZI5cHlJlgqv2SfcL/JJg6qRvzikRMQ4BZUyqYmJX7943wCGjs/GNiZC3BGZXzpnIrsIJr9PaDiEE9tX+wqZwE0+kCGq37urV7lnQWa91RkGTuCdB/BZhIgyVr2gX3hz/GcoCl4cYFqJnp9VS+NS0IJhExZdte2jViSuvmLWDqKH7aygWTIzJeqIODaR4mLveMmIys4MBYBqmlWNIwPrJOZf43E0zrQnuNUj32VdbmkGBiyaWaBY3F684FNnnCX03IrWVRVvmrwEQjjiobgqPPgYlHNZP0eird2y8Ipg23JNt2+lFvJzCldfMWMIWZoy05puGxD9v8u2AibXC6n4uYSjXIWBnvgvAHMgKrkgOmvuzwTDB1U/Obg0n+A08jHjuRwycfTIXKTILpnTp5Ob4Vut/OefbPaywBV5GtRmHD15XkytSnwERbszIEzShgajqYZJCdrKcS81V2sz1ovhZfK0izvScjvrmwfZgLprRu3gKmmdgjxdxhlAemNjTwkUxHipimThpWohHTa/KhWqrHNkGLRu5iPw7rZ3G7M+yIZ8RH1pn0x1UWmNiiTMInphbk78ohaujdlBBqSbfzo73mZ8pMgmmZ8gSjHkBOYFbugEuio5WPyYrMzNWCTT7ZYGrzRbhsMFGe9CaRhOJWU2NgMqMZ4kQ9zXfRQgsFCfm218HzyzcdkbxJ2K6Jdn0F8IufCp8yFiGYtnZzyUv2iuLiZ3Ivpnx8QAaYCD6R6Xhgop1h3dPeIO/eOAtM1EtmdOiUh+kea9TAZb5gTub83G2988p+qSzC+dcM1Od9x0eWoXEH7Vl8QScFTEML5uw2PF1ulJsjpE5Ew6byfJwZhojGmPOTJYBlhoa6Phn3LDMJpjZY3uz+fjJS4tAFAORst3wHWLBPn9WbsnXY+UCzKp+ysYCGyc9NZIPpkg8uc5oFJjKBhQvvyjtbTY1288b2M4hGWw7jWD3NDixZu5ozdVUu3/Y6P2JEi7Cm6bZrABP6xrABNe5cGtTL3Ldg926egcPKn5rpLl4Hmzn/SNIwA0yXspaoI4DpdA7geJ4mzxZd1qgcsOn/Z4oLd+oL2+HdUqV/sgHY5/j4GNfAcuuuA44/bgYdAM1rVR0Ib2RdW0VdYmStAOzlrAPzqn+8LgVMpR475Ftn+RtTmTJsSeaOALSF6zRFOg1q962G1bZBHpUp9S2wF/VaOIgLlpkAkynPFjqzYEgvAXJDk4kFVqfKmpQPxiatVL2qgd0PIlZn3mo4TTsbTGQB4M09reNfte+yHLXrqhwagBWNqraYGutmFqI47nxhA8jH8sfq+WhTM+b0taVsGM23nZ3osTz2FfmZuO0aNPzmBq0vQ0PqKnPNXoVg2t7NlQY41bprLdNdfOoy0zoALSMHTLSQGeLnaGCiQ75jAVidEQncVSgIf8nKBgBrPhQzi0AihjL93QFaS+yBLG9cBwCshTIuXi1rnA0mfoFGszStsfXsNDCVhlUNAOx2eNcjLkTP4CXll+twZpze+3auS+926G7rDgCA975nmcnkN1mvJpPJvKE8XKBixdbT4xp7rL0awZMf164FoC2C2/PK30HUpxfJBBMNVFgZ2swUQZh6alVWMbpUuMXURDdfsrsXgBs+4CFWzy6zmhJAnbrl206br8+uUwsrGitTgxW3XhZqzPxNcl1TAdP2bh74R5JrzQwXN5Z2+OcsMM3FvBN1JDCxg5njLc/tIYP12Wlurmo9jTw5abg+i+6YaYtDT1mZlkHfn/yQnFQpGfYj61fETs3cR00brodBxY0zvg/aUGvS7Y8rnygzS+1wHktB0tmSZS7HTDPGZ+XIFfun23txuB7kjZyKA+OizRfrgOl63C3l1JM2ZqwK+bb7XO/2c8pkyW8yiFhvxq65Wzeb4343rxOm/S0njyfxVCrq4GA6hsrLfDLtoSF8/UbcT5bZbAfhQ7i0vILfYvtLO7Yp5xDNlwwvc22vb62B9rs8aGQSTCZRfxWYSuRe5lC+0OnHBxhInylzESRUHsM185Zcjv6lWjvW68GbL6F82/8cMI3APiuh/kYwlcim99VO7x1gIH2qzAloq65RMocbLUwsN379KjMZz6z4cYpDNF9C+bb/MWAiRgufXfm3gukATj/63cosVwEALAgfR8m23ji//N+zbQI4G3L45otri+1/0FQOhWDauSXI71cmeW1Vaw13cT88bD0Lql+dDI7RfMlr5F5k6W17bF2niodAEEwoFAqFYEKhUAgmFAqFQjChUCgEEwqFQiGYUCgUCsGEQqEQTCgUCoVgQqFQCCYUCoVCMKFQKAQTCoVCIZhQKBSCCYVCoRBMKBQKhWBCoVB/GZguTk7Cf07i/OS/4LeTi5Ly/rn6nfAl/TYRP6Xk185v3t5uzg3sCxQKVRhMJ7p+Erz4oV+L7//U9bvwQ3f6N/U734K/fdd1Hz0veqAbTqw7/ur2O8HeQKFQBcFUvpUwojTRdRExnesP+oNRBEwP34T8YKryoes/r9+eKN+uMGhCoVAFwUSu9Q8Z1LzIX8mb/vQhYp8dwXQbKfVO//ABRb7ffsfeQKFQBcHE5nIiTCpdBcHTT/3kWn/aG0zlZ/1F/IrxEgqFKg4mOpd7479VlJncs3FC/9sXTBe6Em6hUChUUTCVrvUfkjJyUvdGyWM8h1nxomAit0q4hUKhUIXBROdy54I3cib3gwU8dyFcCueYrnX9qYLdgEKh9gUTncv5CSHzQVmTMxl0bsv7gsm40vWHuxtMMKFQqP3ARMObK/bjRpnJMQ6Z4Q6nXbYLXHGZgkwvz7quPz/9h32BQqH2AROdy7Fp15Myk/PX+MNFugIbLIMJnPn9ir1+MrE3UChUcTDRuRwFkfEsZnLkQtcvxPysvDOYns+5ysrnLl7YBnLc+o1CoYqDic7lvrG4Sc7kXsQyXbgRvHCOScp4wo0DKBRqLzCdsGT3dXBO7kp/uPWly7fywFTOAxOhcdgbdgcKhSoOJjqXuyEfMjy6CA/kyiAqBiaRLS+xNPnH/+ycjY/aRhrGMRlGVpqkpmkCTYy5M4GcAlyilhqEcy2l6gJhA3TbJScosIilKZxU7pL/X7oZe/z9gc2y2o36PlKUXXs8Np7Hv3nf18MmwsBEC1X/hOEAgUDxwURI8/uFLZP7cF/XhZHLOcGEX6dOWdvf2Y5AMGHbd4RBIBCAKQaYPkudmpkciXGM5At/YBtdEdNT84+b/Ma+E+cC093vX7Gffkil4Fu8IBDoEDCRXO43WyZ3YUVSHzAD0yum+3qgdPoD2fH0XerDXT8w/ZI6fU3RdPf1+9Q7WGUJAoEOARP9ComRyVnfmEskLti3VX6xqk5a/HP/XSr1/t1pKnV6YaR/qfdMtC7+lC5hOv3uO9Lif69gNEAg0EFg+ixly+S+t0dSf7rApC8GT/55qi3sNlZP2v6CJU36MH5NoUSw9B+Il0Ag0IFgch4cqdW9i1d4T4OnsOobBAIdCUwgEAgEYAKBQAAmEAgEAjCBQCAQgAkEAgGYQCAQCMAEAoEATCAQCARgAoFAACYQCAQCMIFAIAATCAQCAZhAIBAIwAQCgQBMIBAIBGACgUAAJhAIBPpEwCR8CzcWBPor6osj/THa6wDTvR/vfA0jBAL99fTy0YvntxVMz5/xb5Kf4D3NpndgrBuVsGwX4C582hnY3/iHL28nmO49dHFJyWSET+GeSghlr9jFNpM5AXPqKmQy/ZiHKAi1DziTUk/f8GeNb/EjOKWVybRv37Djn/mvjhEzHR1M+C3/1hkv5RGyj1p5t0xvW1dB1YlqKnfEW1q/OpiWCMWKurrT1Xw8NX+dVkwt/NtbDSqdOOepVGy/NSfzVaVrG7IF2TDdE+ROmnGNgJBkhkKqagx42JgdCKY+ygdexMk2vdzl8DU/jS6Lx3RKSzV8l1NVdqkF9Uw5U8v2cJLY3fkYIKTEG5HKaria2jZ0JvP5eBFoR+KUynzuHPhuZT62Nix8/Iq/5D/HtxBMf/CPXMDMIGRdqKCISJNyOJqqyNT57UrlzhCKMQ/ilcxRrY1RXXOmZr5HVKwGXHRQ4LHMyZaZetrhjbGJHP0qetNQtMncIubNqFm8aFnML6Lg8KbsSuWyqnA1MKmSbpO6Gr3PcqsVe9wdFo/tlAHKsJ/aCGk3ALeL+oUPLIpvkWvizCK0jHPKij7wa3OcVw1tw6YZYMfujHnRmsTm2oZLY1Icmm5c2VKmr/i/3z4wvXzMf+PaVEJF63R5hIqlZYkYppg9HEzVAVM2cUxdGfTbOEFXZ83Js9Vk3uBkZo35jEnmhr6HLIwGlxzXjXqeBeWdCaaKzPVmqzkxqU4mTLy2Ho6HxKRh5FlxvfjDlIkJJpdyEe9mIJhUESEpnf5YRKgfuc+SddmRZbd4fKd4wbREqDZYKnkRiedWK9F563Lx4supzG0mlTEx3cIYUm44qRA69Tq+dlyQPcPxmMBn3bG4NKMt1l0DTL2hLvus9l/+wRe3Dkz/5n/0BuhV+0Rxrj3+ar2EDwfTTdcUgrRDKEZyOb7UHNBtcJfOHc1wSCQwHnKbqPgjZmpsTDDhGTekNz65Yf7rrnVCdXvcOuSMDW4cv2bXv1kwJYtoVNbDdHMWvB4w2S0e3ykeMLUQUrTMOvdRMuI7gWAJ1e1dCPEShoY+2eFL5jZisgqz39zXjng21IA05VgD+hN1wUI2NlAbYirnqT7nf75tYLr7iH/iTafNWgMZg4HhGtuH8XkVkzwETPaDIvSJ96ExuW+Lu4eT2LUGzREc5ywYzcMYwRKrSsTOyYQ374xtqdzUhN9E/0iMgZOw7HDCyZ24HytvlUACwZSMC6akT5AbBCZy1pbbDT59JvFeMOE9zrFbPGKd1OYUD5iWqJZ0X/gWSa5rx7EKmk0jxq5wMtZd1zPcdhlux5nRwPhhxTWwCSYf/crfuX/LwPQN/+C5N522fFNHrjc1hV2/XkO10ZkxAum8mjjp11FVKUQEUyFPJCTKShXVSpH7zCn5mij12bSVzWva2uajM6mGinnFioAKS5IT1DNmuUJIj2q1fNp2mTgbu9bAJiIHEjoyY0ZwcSp6YtXcLKjXZJ8ZdO7M+LgQ2F0G5JbhhZdlMJi8QzLQRsBk2TafHyEk0W3m05jtS2LVGoBEjnRQ75eDwHSOUNmZP3n6PElLRSTWFdYuSfYUyajbLwS3PxbFkW2YW6WqKEqlLfa3eLTHzu4UD5j6ztDIvJuSs6hUi1PQrBgWWDC3mTxym8ltR9NtxJcrR7AVBKb7j/lfbb/ee3nzYPqJf+GduJS27fbWnSFFoYaQSCt9xvYMap+JIgFL8Fi7wCTQKmG2rJXE81H73JH9okj+LY0nh8rql3ZXq1oNyFNBC6m0cp/RZ7MsbUG6lGzJW1lRDrhpExc2zAkpMJKLm1j5gUm2Fyx1wwaWvxdc7NI3wYCiBoPJOyT6S5GRcUjaesNh0GVHWtNhTbO7ky1qI1AdBVgl6y7CePvMU6eQM9f00KpgNTAmUCGjm6meNaMjJFY1d+V8LR5Ndqd4wNT2hnWCiLLuwCytlKOfsGvghriLkaphTDqbUDuSQGnDjjCI1WPzVFBFwZHLPXnMv7lxMH3Jvw3df47QqOU4//ac3N1CWzSckCHeSwsJrAS/4HKBCQtCHu1GqKSesRHe3+eOXkchmVVqejScLBPVbf0OUJ1cJ84ta+yIMomfdgLOtYt6I6GGpCxOnpAg6oo1887aGbvgngsZnjGLnVj5gKnpDpAm7gjeE8x3Ood+RD8wuYeEjkDfAlOhXCZHqXSrlf30y9qw6qWVQhFVWxi3pKA5DNeRuLTH3d4+1XYOJ7BaNQaR7MmgAW1QMBPSqppMZEdGC9IBjZ4ENT841iIED5hyhLbn2PXgVDXSHr4+5lJ/mdbtsUmNxD9atXFhVsP97ZhoymzGIg5hF7VhQNJqTF2vLd7YMJB8xPP8tzcNphf7yl4KnRXbXtKnjfcaGTbNCcHvHLw1pgGS0BnNw/vR+kzWUV6PewRbGUGy+i2IxtkLZoW1qF91IWl0LrBp+SprFrrNypqbJV1B9543bm7rHAKmsfssm+DCll7SwiHkOgBMnmHGmGBqFFxjIlMPy5t0Rpyxx1SQgoLrXBGhYl/Fewvqqm2rs8akIjHLKHjOAqZicBXzSGCi8yaqp7OOTI5EWLhKXX6gFj1OnjcXPdkoE0xkrjfuTuTeItiOuLsYN4x5ckVd1KHrmoxi05Bbz2SO662wO3F6ZnXxkIDp65sG06O9Sxh2esrlmhDoUJTZCGT2lLjJnlFal2AOrXbU1nlIcJ9b33DMBqak6Fq8lnMtGiHpomJMqdIVuERXFE3i1XPwNM4ipgAwddwlpmlIiUnPLTvHBZPfMIeBSTXCBXLrVf3IjDFnBGX9JAQjKtoKhf5gsr/gcoLJoCEBUp79L5YTx5XPOiYSoVE2LQXLbiee+xM3Mt9oK46sfL2pLWxqdEPsWLEvfBrSWtOamm/Iqk5DjpPXlw2Ou3Q+zn/wj61f/vHo8U83nsrd4f+1r0lyV6LlhFHW/ZYixyBSMurkwWByVx8Gut3KJ7loffZ9X+9KjlQOKTlnDppz1S9Uw7Hi4TF9c70mwzrsxKrnbCKvFQgG05xrOCiD1+41C7Z9+pzZPS6Y/IY5DExn5phJWpBlxVohK78TuWUd2QqFQcsFENr6ggnXjB07Fim1EKqfF64ZTOTELYXWsao78+zYDudDqskrWZ41bCtruwQvWrwzDbbjZN2TOZkFRDOCI4quMXWP7tUJ/cIAHnOumucT/oEtCbh778aL3/gZHwWOwnaEUJXNBlllUK/VRA9EpBAw5du6zDc6rplkX5/+5VL7Gct1ZzSdduFnZxp86373E1fTnmPCmQUTQr/HzZAqdUQw4Yo7PhpyjWZIcb6rV6WuAUxSVDD1kXSua6QdkjXflvfD34m1lBoyUyA3mMrLj1KRvsPwBxMNlPWTnhnBDPkB1TLnwvWCic7gaokgtcUuSrtdydrBuRwmqXozgSdrtioJd3v/b+98fNJI2ji+rJvt1ryvLzSn0MsCPXih9pA0d7cVlDQhbQU4U6SmmqsGjacm1VzCJap//83MzuyPWdhdEAu5fj9JSIB1BnYevvM8zzwzJgZtpX1eTxSOQsyR/IkoW2JyRNSs43hM7lRZ9z3/yXj+YCmZrcf0MWYCng4vC4VUcvNL/XQ5P5EwBXNM3uRSdJsl8cJYYVLUd8ybFqn6suRjvXPkaOhWy0zrNnknnO1EVInSXlSVU7QwnRakKe5QyoBKseVAmb8w5TX/kpl733ejFuuzNSf+koRp39SsXLpcHidMLU+nwlnJlKkvY50VH1mYaPeWnScgkdyQf7hpY7lz7iLre9zArvgESCu+O2PN0TYOO3XAckxKZ8TkeSRtRHgRLLOes8f0KfYn4qmZXc1k6abWDIUpus3cyOpeucfK9Y3Gc5/kJ2P53jtwDPzgIUslIowaeGKsbnhk2ImqcooUJn1bTjAdhagh9dAu6K6DAXHy9zbmJkxlrbYvaNij24gpTPTa4ag2ydjZecpxwkTcsk2nV0cz9Faqqo2c2x4uTP4K0jO7DnNI6yIo5tTuuTPkepepilO2pncS/lVgnznyzNMRt5K2b6ryJiiPp/FPvp3H9NVYWo535SaLjYomzynPUJhitJkembAe0WNT7ER9J9V0N530+f5DckzCE3YmoHYholaATn3qw4SJ6NKe7yNvJMK07tizc3jS5UAh8Y6IqFwCJhcmaUMGffcgrjAlnaULf5t9sRFhnDCp49Zci7sT7dcOxS2SSMl77rhbWPb4bdMdddJxh3iPxV2eQv+uJDNXcjKBx3KO/OjyxLbhz4vqM9jGO2Nh+rBi/BnvyjSzs5YY3hkKU4w2UyOXVkb1uMs9pYZU/5900hblEWW6Dq/ffomhWl13He4wUKK0sXfobUKtB8Th1U+/TiJM23Vp2W+ELnXOTxxLE2etnJPL3OMt/vvj+nJ8u7DE7ynDA7DJhelAmhqKzqkf0cLk1nT42lTFFDZWmJTauKNFKlpYuid6SLzxpJ3ZZn335Leoh6Ra2nXSphfyXUOGRG+78dmAJYg8WtKV7EF+LkTN0aNjeX3m0KlwYnzx1Qcsr799OXdhinLizkQ6Jmsxy8yI4X03O2GK0WbWHGVv3h6Tij+3pNe0nB4UVlaSux+m08G9g64r0nFcEiEMumwUbMH2JJiJ9rBuGMaz+MI0Io4rBAK0y4S3G7ZPk1YpuJpJq1N+iG8WN1pN5SJil3/FEaaizz0oVqUxS/Pfc6U65seadfaRbDrhtr/NEhehrEeYUo5M2Mpg+QN1XsbmcdhGEGNI/N73gTBLJpRD8WGKfWZ+Dc0U9ng9vlohfEi6Yim3XWcOkhvAnXLzC5jjkS58dO5cnfCDCJws56nujQ4d/Amd3w3juTp3YfrFWHsdNjdomxnyZfRGTbPozKVaWp9+6GtTOPsPF6Y4baY0LUUXOofeOnRPjy3LLvcfOtXjxKnu0Zcy/NhAIn+75Jsk81ppfBb0LTHQn8erRZ0JwoZnGWQjUKJEi0+8O1QuA0c1fSSd7MQWplOiSzrH0SXfC7atJgIhpU+YXpFOV+IvA2dMLU2r8VNCF+IIE3kvR++t7eLo1yQeo+PayreEE0tPqKiMq/xOVrXakP6gK5uehJCvzZ79M6d7W1Ke6InKRNLWI7Wq5ei1yTP7NAz9psYKNiu9sGxPjCHxUtZKNCnazGlVdriAqfWa7EP2bMH0uIQVj4TKXlrYkOgkdDund2/7gq9zDPh8dNy15SZgjgO6jGcXA/CZbLuQGOgsCjzkpsMOJGgP/B7UyyVj3eMwrZHP9ffchUn/n/F+fPBSocGy2e/TjWoHwqsp7W7WtHKe7z2aXJiKObrdNpdzalVitFlMa5rV71vCYodVgqmVyCObls+IqNXS6Zqm5YT5kZfMWp7umrKFaJ9cns6TnkNSDb8ZIZNYh2hO4eKqm0h0HTG6CJQo0bO4Ln3qIC+ffTLC3LLtOqFAxK1e7wqh49i7zAvuCxce5z2YDvcJE/UFlybIrZG7pVVrpq0lo4akQkfA0kzymPME5aWbmxr3J+j2lVKvV9V4vKPvkibLaas2dhMvqwTK50iv/eLINolemjepvpkjEbvY2KcTNein+xZ3kJtVzcylSRsmG+dsjRpOOW+GJnvChyT4syDaauVomTrro5iihX61PK1Yodaoljx99eVoL+6Q7NHjbwYXBeEPtYlX3L0akMf66UhzpCcK1q9o+eSVM28WyCtd9xgUevEVbdI7iekfjfdeD+k5uRlf5i5MystV42vI240eK4+0dvnvXb9m1rOvZKtmcjphSkrbLuO1eU2HXcvxCvQDN7loX5pJszMEqyk3r9HsU3upOsvELWrxVi9sSU7/2Qi7G4eXVBXq587vvXMZKFHa7vpqcc8LgSqn/6yE7UXa9giRJExdRRImN4o8KcjFvJIwKTsThXLi7tUOnDhMFiZ3BNwEcIsNUl9k94Y51oazr/+MTnA3yetxeZfkJvsDZ5SDbbIn1m5R7WnuqRHskFVLHLGatKsDynyc1X27zV4j5MuGD0kQNWX3ISbBbJl9SLPX5K5h1hN0mMkxrUQMyQY7ILUwELOgfshOsCyctMeYY/uElYZ3XfPTj2kbXUeG2nvsigvfXPnZWP0gzc6ry/MXJuWvlbVfwpdImk2vE6xnW+ypPsPTKGO1WWw2Q0tRkq2WdFi0nmlV/C1kwp0GfdVYC038qafH/ozRiCrHU1+Argb20T0zjP/P/FDrTtSml9+NwFGlERQzU5z0Xmn5jEUes2yzGGUJjUwxrM0KH+Ss6v2kDe9TJes3BD3TyIR/kymGpCIZWzHTmvSo8sghaZ8eb/va7EjmFzDH9vGpf4MAeSVwhT+B9NeatP711TD+UBZAmJTPUcr0/fCrYbx49E4+G77Tb74Rq9NkNBcQHUMyU4guSUHsD8bKh4UQJuXPtbVnCrAN9PH/KfGLaTzlh/I6NEb93vl+h+T12sp6IGqYptryUf5F+Jcd2CY30PeP38lM/inFpGazPoPTU/+9fMdD8sffwbD21aIIE3AM9LdH7+NDRBrrsSQXkw+GJA4/Tjc5Q5gedRbTv0Uf+ly+mY7hxZDEQF2eKvEFYQIALJ64Q5gAABAmAACAMAEAIEwAAABhAgBAmAAAAMIEAIAwAQAAhAkAACBMAAAIEwAAQJgAABAmAACAMAEAIEwAAABhAgBAmCBMAAAIEwAAQJgAABAmAACAMAEAIEwAAABhAgBAmAAAAMIEAAAQJgAAhAkAACBMAAAIEwAAQJgAABAmAACAMAEAIEwQJgAAhAkAACBMAAAIEwAAQJgAABAmAACAMAEAIEwAAABhAgAACBMAAMIEAACTCtNT8qjiZgAAFoNlJkz35PENbgYAYDF4QyTpXrkljzu4GQCAxeATkaRb5e4JXCYAwCI5TE/ulC0ayy1BmQAAi6BLSzSS21K2mMv0ZOcNMuAAgLmivvnE5OiOCNPW7RMAAFgYbreoMEGZAAALw1OiS0yYtu7ucTcAAIvA/d2WECYiTbf3T3FLAABzdZbub+9sRfoHo5X/2za+R7AAAAAASUVORK5CYII=;" parent="hSnGnxF8W0b-h6a69UVP-1" vertex="1">
          <mxGeometry x="590" y="190" width="526" height="118.08" as="geometry" />
        </mxCell>
        <mxCell id="hSnGnxF8W0b-h6a69UVP-13" value="" style="shape=image;verticalLabelPosition=bottom;labelBackgroundColor=#ffffff;verticalAlign=top;aspect=fixed;imageAspect=0;image=data:image/png,iVBORw0KGgoAAAANSUhEUgAAAQ4AAAEICAMAAACZNuqKAAAA4VBMVEVHcExVTmwoMzmbeLn+///p7e33dmkmMjj////HkuosNj09QFLDj+Y3P0lFRFoyOkFKkOJrW4W5v8BkV31JR19yX4zi5ubR1tdSXGGkfcOvhNA9SE5bUXOGa6KYdravtbeco6Wkq61DOz+pgMmVdLNQS2bZ3t63iNh8ZZePca2WnqBIU1e9jN9SQEK8Yltlb3PfbmOKUk+/xcZcZWqeer3OaF/ydGimW1Z9holweX3rcmZ5TUtsSEhfREXq8vyPlpmOuu13f4PJzs+Hj5JpcnbBjuO/jeGjfMKy0PPE2/bE2/W+9wA1AAAAAXRSTlMAQObYZgAADIhJREFUeNrsnQtb4joTx5e4aTctpS8CBSmIAiIIIKjgXRQXPed8/w/05toLgiwiC4WZ51npJaTNj5nJNLp/fvz4H7fnf59+7qw9/fcsKPz4wXE8P/3acXt69nH88wvs1z8KB9BQPBiOZ75zlDP0HTUjd8QRPHMcLG84OX2nLeew/MFwcOfYcRqUB3cPiuNfFin6zhuLl/8ojidwDuUeTxTHT/pqAA6DYvhJcbCgARq6DjgAB+AAHIADcAAOwAE4AAfgAByAA3AADsABOAAH4AAcAANwAA7AATgAB+AAHIADcAAOwAE4AAfgAByAA3AADsABOAAH4AAcgANwAA7AATg2CIcRo5a2kH/EjnmWUAfs0HvSfgtb9uCbxVoE9j+5rN+Hbonrha6DEsm6d2UzFjvx3mmtDEeCCKsUFJE08ayomqRD79nzW9AbM0nI+Pjj3m5++mWDbzLpfkpuvxVN1aTwJu6B3xcqEhI31O0lV4njvXpYadEbT3s43veEpWbhOJUNDum9WhVutAP+agocedmiPhNHRbbYQwJHtdG4yiue/Ei+WD+Ikyqn0KBnuHtk6EZmlTjYVYxki7RMhSMx2WQSR/VDPxYhBX8vPu8DNL1he4PnXpCoyNs4kb4Zi4vXPZIXFKp0o75qHPQG38jV+nGwE3LUe+JAkoxZ/jggDbLH9k/HDRnEK8WBMnLU68Whn5KGOC+7M0RfeZIib4iduGrwFivGwQZU3wAcee4EGTJW/+e1Sg44pfQpu68UyRSnXP77caC8iJb14jDEh1IkFTXdZsgpfRmTdIN1WiQnRRnVq8XBstX6cRRJPMEvsadOJQkxdERvKsWCpBI36h6qleJokJbEUTngdjITR0s0aMzGkRctMrNxNOrcMgpHwjTTqSuZSfNefkAFVpnY9IdJ3cSgkZOZVcx8N45xuAwr6HPKsPxsHKFC7rMyLK9wCDstyITqvTPGvNVkFV+emCc0lJLiY1s1jioPUoajkOZmz8RxJRokZuOoixbmbBzFJLeUwnF1VSEkKRNqxY/HFCNB78GmgZTK0BhLkfjfwHEgYnJ9ucPIk3eJ49BPl0kSR+ymEG1U3KNUCiyZrByHESeNNafSE6/+LvqBWGdOG2OBbJF8q8JbWavHQaGn1j2zFMnYVNOJ5TntIbu5U55gWUpJi6e+1eKgnvpmrxuHfUoOeLjYY9WDxVqiFPeWIr+IOXmDK8CB6spR11p3FNRd0Gix1QZiVSrLa+l63eKXOlktDitWIeQQzcRRMKWhVZdhVRJnkYDMMWFrBXZdhHA9UIkaoUt9O474mJUJrYzhrXeMpbVCK0Sskao7VIvMLBxx1SK9GA7rjVT4VrpFyGlFrfUUWQLxe0+tdDVsnN/LeOtygdWw+CSOyuRqWGZOGTYZZ/Mf4ZKqU7NKgYyvCrJEDFTArcWWw7Zl6RiZ6e+QcoKVdMABOAAH4AAcgANwAA7AATgAB+AAHIADcAAOwAE4AMeqLoFuX93PW1ivL8bO4DjHuPR5izOMb3YGx2/AETTjZRgKFis38eUWyHq92Z1gmbTjec4COLYah7E0DrRYlxuM4/Y4i2v7L3JAw31uajQG3a7R09TO5CHR4CzQgz3cd2r7Nx4S+2bk0PecudHDYZcwxg79NxI3z3apeTiwZ+q7kxy+d+F30RzRHujRkvzNuJul+1nW7DVqONAFdm5c3TofXRhi0nBd98XHgSzLKuF9+tNSfwZAG7jHPg5k1/BFE6HLmgK2j7N0KkLN17/wzWTfjOMW40s5qlAdZnzIHShcePjeMcRZ3jqHMXcww8Ev0vOiFiwoi/enlqXG56k0gMN28K3yiqHEcRbRmcXFaixfxqGcgh08lljwUTOSOC4xzi2Jg4bbb2EqoVhZlpmHuejhePE+2i/jePXnHpxVVf4Fn3xyUcNBB95cEgcleqPMDzz3pYRx5GaWJsbnS+K4nOpgLKk409L0RuOw8bRZYCEc7lSizI6wE7W6g96yOw/HENfQbBx6CY/Cp20PYzZqdYfl8BJSt86OZ+Kgu7/ZKN3pOGjAlSxd191jXpOjnHPG/wL/3MFHUfMO/byGcXafPWWInLqfzWbZIWoqyaJ9jC9KF45wAoudcrCTzWYlklu6d1GiXdRsNdVkS2x/ZEUOh+6W2MOWcyw/+6w/bXpzjn3Gdp0zW+YKZTXlH/usi9pQRkmzVONnh6unsZL1DvfSRXMWRJqXzc9WMFAzFxq7lcvN6zKyq2F/loUmdtFfoQG/dgIcgANwAA7AATgAB+AAHIADcAAOwAE4AAfgAByAA3AAjoVwWLFYYPHbYHumJ0+cjgkpEtOXJTblmyZ0icPix9HFcRLS+UkwfbKkp7NyKGUQM75UCxeZ+ahLHBY/jrB3CM0ZwzAYAi7ONQ1HXMkSJySOCV3isPhxdHEgIc/VEHo7GSa/NA1HWPLwgy7xVKmoSKbSChdLrRCuNFRkmm1/jsPTJd4eHFXGAY3fuObTFXOVBXBIXeItwlFnQsImqcbHiI0uthiOvGyxNTiSQu6xnieWbnBpwwVwSF3iLcJxIubWVJWcUCeJI45DCupdzcMhdYm3CIfJPKJI0nWaNmJc9TEZ+PYDr+4QwsUHtsIR0iWeLn4cSRwoTvPFO7FTpKgn+WdMceSFjT+UYZYeLMOULvF08eNoPrPkSUpvneppOvQizwTTcsebEC5OI4UjpEs8Xfw4mjj2SN2i1ZdNU+ohr8H/MJUGdIm3KHdQl2icsOqrRegA03+OI6BLvE04kuQ9yaqvA5KIE3sBHL4u8TbhiJHTIqu+GkSO+o9xeLrE24TDJOSdVV8ZckXeF8Lh6xJvEQ6DkDirvgpEyqQvUJVKXeJtwqGfEl4tJJRS79TlHyVcXA3h8HSJp4kfRxTHFSFV4SVCrPjT1bC98COc0iWeJn4cURzbb4ADcAAOwAE4AAfgAByAA3AADsABOAAH4AAcgANwAA7A8V1dXg6bgEMZsjCufRSjOBsNd9M73Kk4jpaQdTLa99e9x2CfqN0LHzAee7022sxgOZui77UEjoeuxqz74B0p8yMD/8DDgLdoRyaVfh3HtaZ1eg89SuDBp9Hv3Xc07d6n0bnv9bW79vbjaHcfeXx0tDsRHnSra3NOA/EHaMad1mEvfa0fBRxoydwhfULTHkMb6E7r8QP32oCDamtae6NwoN9CudhPHsg9GuHRkbU8DjQQwYF62h2SYSS8oc+dg1pXu/bbN631e8eNkLy69G+qxoWLaxff4R1tOXo56AdNY9FieEnkOhAtx9i5Wbt32K7rNgM47Bqu5RDKjfAMHKh565k7J6V6PtCTWUUA8qJIp37jdYunzvdryB1WAMeNVE+zR7O8Y+jLqJ3PrjzKjx2tXxY7A4aj/YAUB04FPbRZEtFU7cFxoE3DkVXqkzNzx+9jz2bLkfZpldGTn7XNYoPGybXY4jFTZtPxvdhSZbBTu9U3DAfdfFm+KtX1Tp+WHZ2yyiEPbPRdlTTuWQrpMz6PARy6ZegbhgP5cq5LzyxlWnfwMoNDaHcHPeYdrDLjEO4HtAaTuXWz6o6Ad5x7UtAzcRi2Z5+HuqGmUV5uMB32YO7QDaTrgdyxiThQzts8WiqVyqmlG5pZUFvEhqCC+MzS1TfZO3zd9Jk4Xh3P5uDoyc++o2Zc6gyGqM/kzNtZukpfrXcYnvbx8lWpV2SpmlxxQeqEV7XzZZfXW2PTvEMvycnfzX4ZR1k+h9gqdxiyWi8P5DOumlAe1DMdw1HDX/lWnBXjuMT4mPJwZ1al8x9o7wY9RrRMn9/Lyk0Gbf4A2xWJE3X5I275TkWRuDDG9rpxDJlyMcY1+pMnDXSEcfa45Iy+HCyop2mDfqc/0O4e1RzT0bR+507rlv0FkEGHVh59PzyawW+FWRuOI3+ekPXXK3uGK1m3X8ahP9KRa9rdtR8I6JpWZYNOOVCU3LEWRvhONiNYPiye5pb+YqbyY1kPy/uWJ1ZGUbscVgQuzZ2414TjL8kUT+BxcBZtJI61WPNrX0S4rThusGMDjkDq+NKvubYVhxBdARzTM+vO49ABB+D4fzt1bAMxCAQB8AMHyBGRRUgliND039CfDdJX8BFzyeaj3cOBAwcOHDhw4MCBAwcOHDhw4MCBAwcOHDhw4MCBAwcOHDhw4MCBAwcOHDhw4MCB438cR+RJ41wcLbLgKMHQgmNEVhw1GEZw9KQesxypB0d+1nJt7lGuZyv54XjrkWrZ9p+epb4E/eXId3Jxd54cPJbG4si97Y7Rev5xBMhox64URxt9Kny+wMFnqx06e7gAAAAASUVORK5CYII=;" parent="hSnGnxF8W0b-h6a69UVP-1" vertex="1">
          <mxGeometry x="590" y="560" width="127.35" height="124.52" as="geometry" />
        </mxCell>
      </root>
    </mxGraphModel>
  </diagram>
  <diagram id="H9VaenfQ2j2b__VVbeFx" name="06 - sql">
    <mxGraphModel dx="782" dy="721" grid="1" gridSize="10" guides="1" tooltips="1" connect="1" arrows="1" fold="1" page="1" pageScale="1" pageWidth="1920" pageHeight="1200" math="0" shadow="0">
      <root>
        <mxCell id="wiskfonBnD_2f6Z8JTWf-0" />
        <mxCell id="wiskfonBnD_2f6Z8JTWf-1" parent="wiskfonBnD_2f6Z8JTWf-0" />
        <mxCell id="wiskfonBnD_2f6Z8JTWf-2" value="Oracle" style="rounded=0;whiteSpace=wrap;html=1;fontSize=27;fontStyle=1;fillColor=#dae8fc;strokeColor=#6c8ebf;shadow=1;" parent="wiskfonBnD_2f6Z8JTWf-1" vertex="1">
          <mxGeometry x="810" y="270" width="240" height="60" as="geometry" />
        </mxCell>
        <mxCell id="wiskfonBnD_2f6Z8JTWf-3" value="MS SQL Server" style="rounded=0;whiteSpace=wrap;html=1;fontSize=27;fontStyle=1;fillColor=#dae8fc;strokeColor=#6c8ebf;shadow=1;" parent="wiskfonBnD_2f6Z8JTWf-1" vertex="1">
          <mxGeometry x="810" y="340" width="240" height="60" as="geometry" />
        </mxCell>
        <mxCell id="wiskfonBnD_2f6Z8JTWf-4" value="MySQL" style="rounded=0;whiteSpace=wrap;html=1;fontSize=27;fontStyle=1;fillColor=#dae8fc;strokeColor=#6c8ebf;shadow=1;" parent="wiskfonBnD_2f6Z8JTWf-1" vertex="1">
          <mxGeometry x="810" y="410" width="240" height="60" as="geometry" />
        </mxCell>
        <mxCell id="wiskfonBnD_2f6Z8JTWf-5" value="Postgres" style="rounded=0;whiteSpace=wrap;html=1;fontSize=27;fontStyle=1;fillColor=#dae8fc;strokeColor=#6c8ebf;shadow=1;" parent="wiskfonBnD_2f6Z8JTWf-1" vertex="1">
          <mxGeometry x="810" y="480" width="240" height="60" as="geometry" />
        </mxCell>
        <mxCell id="wiskfonBnD_2f6Z8JTWf-7" value="SQL" style="rounded=0;whiteSpace=wrap;html=1;fontSize=37;fontStyle=1;fillColor=#f8cecc;strokeColor=#b85450;shadow=1;" parent="wiskfonBnD_2f6Z8JTWf-1" vertex="1">
          <mxGeometry x="600" y="360" width="150" height="90" as="geometry" />
        </mxCell>
        <mxCell id="wiskfonBnD_2f6Z8JTWf-8" value="" style="shape=curlyBracket;whiteSpace=wrap;html=1;rounded=1;shadow=1;fontSize=27;" parent="wiskfonBnD_2f6Z8JTWf-1" vertex="1">
          <mxGeometry x="750" y="270" width="50" height="270" as="geometry" />
        </mxCell>
        <mxCell id="wiskfonBnD_2f6Z8JTWf-9" value="SQL is used to &lt;i style=&quot;font-size: 16px;&quot;&gt;interact&lt;/i&gt;&amp;nbsp;with databases" style="text;html=1;strokeColor=none;fillColor=none;align=center;verticalAlign=middle;whiteSpace=wrap;rounded=0;shadow=1;fontSize=16;" parent="wiskfonBnD_2f6Z8JTWf-1" vertex="1">
          <mxGeometry x="598.75" y="454" width="152.5" height="60" as="geometry" />
        </mxCell>
      </root>
    </mxGraphModel>
  </diagram>
  <diagram id="wBCIfU4umIJbon0Tmiyh" name="07 - challenges">
    <mxGraphModel dx="782" dy="721" grid="1" gridSize="10" guides="1" tooltips="1" connect="1" arrows="1" fold="1" page="1" pageScale="1" pageWidth="1920" pageHeight="1200" math="0" shadow="0">
      <root>
        <mxCell id="pz9jSy9immTAQH7uqpFx-0" />
        <mxCell id="pz9jSy9immTAQH7uqpFx-1" parent="pz9jSy9immTAQH7uqpFx-0" />
        <mxCell id="JK-Yve7SplFep_oE8XXI-0" value="Writing efficient queries to &lt;i style=&quot;font-size: 23px;&quot;&gt;retrieve&lt;/i&gt; information" style="rounded=0;whiteSpace=wrap;html=1;fontSize=23;fontStyle=1;fillColor=#dae8fc;strokeColor=#6c8ebf;shadow=1;" parent="pz9jSy9immTAQH7uqpFx-1" vertex="1">
          <mxGeometry x="810" y="270" width="410" height="60" as="geometry" />
        </mxCell>
        <mxCell id="JK-Yve7SplFep_oE8XXI-1" value="Designing the schema, or structure, of the database" style="rounded=0;whiteSpace=wrap;html=1;fontSize=23;fontStyle=1;fillColor=#dae8fc;strokeColor=#6c8ebf;shadow=1;" parent="pz9jSy9immTAQH7uqpFx-1" vertex="1">
          <mxGeometry x="810" y="340" width="410" height="60" as="geometry" />
        </mxCell>
        <mxCell id="JK-Yve7SplFep_oE8XXI-2" value="Understanding when to use advanced features" style="rounded=0;whiteSpace=wrap;html=1;fontSize=23;fontStyle=1;fillColor=#dae8fc;strokeColor=#6c8ebf;shadow=1;" parent="pz9jSy9immTAQH7uqpFx-1" vertex="1">
          <mxGeometry x="810" y="410" width="410" height="60" as="geometry" />
        </mxCell>
        <mxCell id="JK-Yve7SplFep_oE8XXI-3" value="Managing the database in a production environment" style="rounded=0;whiteSpace=wrap;html=1;fontSize=23;fontStyle=1;fillColor=#dae8fc;strokeColor=#6c8ebf;shadow=1;" parent="pz9jSy9immTAQH7uqpFx-1" vertex="1">
          <mxGeometry x="810" y="480" width="410" height="60" as="geometry" />
        </mxCell>
        <mxCell id="JK-Yve7SplFep_oE8XXI-4" value="Challenges of Postgres" style="rounded=0;whiteSpace=wrap;html=1;fontSize=28;fontStyle=1;fillColor=#f8cecc;strokeColor=#b85450;shadow=1;" parent="pz9jSy9immTAQH7uqpFx-1" vertex="1">
          <mxGeometry x="550" y="355" width="200" height="100" as="geometry" />
        </mxCell>
        <mxCell id="JK-Yve7SplFep_oE8XXI-5" value="" style="shape=curlyBracket;whiteSpace=wrap;html=1;rounded=1;shadow=1;fontSize=27;" parent="pz9jSy9immTAQH7uqpFx-1" vertex="1">
          <mxGeometry x="750" y="270" width="50" height="270" as="geometry" />
        </mxCell>
      </root>
    </mxGraphModel>
  </diagram>
  <diagram id="qYkh5RrhJt-s1NAUUBj3" name="08 - sql">
    <mxGraphModel dx="1502" dy="926" grid="1" gridSize="10" guides="1" tooltips="1" connect="1" arrows="1" fold="1" page="1" pageScale="1" pageWidth="1920" pageHeight="1200" math="0" shadow="0">
      <root>
        <mxCell id="rKMzFR0_i1ACB9LUHTId-0" />
        <mxCell id="rKMzFR0_i1ACB9LUHTId-1" parent="rKMzFR0_i1ACB9LUHTId-0" />
        <mxCell id="rKMzFR0_i1ACB9LUHTId-2" value="SQL" style="rounded=0;whiteSpace=wrap;html=1;shadow=1;strokeWidth=1;fontSize=29;align=center;fillColor=#dae8fc;strokeColor=#6c8ebf;" parent="rKMzFR0_i1ACB9LUHTId-1" vertex="1">
          <mxGeometry x="470" y="332.5" width="150" height="60" as="geometry" />
        </mxCell>
        <mxCell id="rKMzFR0_i1ACB9LUHTId-3" value="" style="shape=curlyBracket;whiteSpace=wrap;html=1;rounded=1;shadow=0;strokeWidth=1;fontSize=29;align=center;" parent="rKMzFR0_i1ACB9LUHTId-1" vertex="1">
          <mxGeometry x="620" y="285" width="50" height="155" as="geometry" />
        </mxCell>
        <mxCell id="rKMzFR0_i1ACB9LUHTId-4" value="Sequel" style="rounded=0;whiteSpace=wrap;html=1;shadow=1;strokeWidth=1;fontSize=29;align=center;" parent="rKMzFR0_i1ACB9LUHTId-1" vertex="1">
          <mxGeometry x="680" y="285" width="290" height="65" as="geometry" />
        </mxCell>
        <mxCell id="rKMzFR0_i1ACB9LUHTId-5" value="Ess Cue El" style="rounded=0;whiteSpace=wrap;html=1;shadow=1;strokeWidth=1;fontSize=29;align=center;" parent="rKMzFR0_i1ACB9LUHTId-1" vertex="1">
          <mxGeometry x="680" y="375" width="290" height="65" as="geometry" />
        </mxCell>
        <mxCell id="rKMzFR0_i1ACB9LUHTId-6" value="Postgres" style="rounded=0;whiteSpace=wrap;html=1;shadow=1;strokeWidth=1;fontSize=29;align=center;fillColor=#dae8fc;strokeColor=#6c8ebf;" parent="rKMzFR0_i1ACB9LUHTId-1" vertex="1">
          <mxGeometry x="470" y="577.5" width="150" height="60" as="geometry" />
        </mxCell>
        <mxCell id="rKMzFR0_i1ACB9LUHTId-7" value="" style="shape=curlyBracket;whiteSpace=wrap;html=1;rounded=1;shadow=0;strokeWidth=1;fontSize=29;align=center;" parent="rKMzFR0_i1ACB9LUHTId-1" vertex="1">
          <mxGeometry x="620" y="530" width="50" height="155" as="geometry" />
        </mxCell>
        <mxCell id="rKMzFR0_i1ACB9LUHTId-8" value="Postgres" style="rounded=0;whiteSpace=wrap;html=1;shadow=1;strokeWidth=1;fontSize=29;align=center;" parent="rKMzFR0_i1ACB9LUHTId-1" vertex="1">
          <mxGeometry x="680" y="530" width="290" height="65" as="geometry" />
        </mxCell>
        <mxCell id="rKMzFR0_i1ACB9LUHTId-9" value="PostgreSQL" style="rounded=0;whiteSpace=wrap;html=1;shadow=1;strokeWidth=1;fontSize=29;align=center;" parent="rKMzFR0_i1ACB9LUHTId-1" vertex="1">
          <mxGeometry x="680" y="620" width="290" height="65" as="geometry" />
        </mxCell>
      </root>
    </mxGraphModel>
  </diagram>
  <diagram id="SMNzlXbEQdLOFYB0Q-8d" name="09 - tables">
    <mxGraphModel dx="782" dy="721" grid="1" gridSize="10" guides="1" tooltips="1" connect="1" arrows="1" fold="1" page="1" pageScale="1" pageWidth="1920" pageHeight="1200" math="0" shadow="0">
      <root>
        <mxCell id="RclfrdzI75yDJteYUR1--0" />
        <mxCell id="RclfrdzI75yDJteYUR1--1" parent="RclfrdzI75yDJteYUR1--0" />
        <mxCell id="RclfrdzI75yDJteYUR1--5" value="Table" style="rounded=0;whiteSpace=wrap;html=1;shadow=1;strokeWidth=1;fontSize=28;align=center;fillColor=#f8cecc;strokeColor=#b85450;fontStyle=1" parent="RclfrdzI75yDJteYUR1--1" vertex="1">
          <mxGeometry x="430" y="402.5" width="120" height="40" as="geometry" />
        </mxCell>
        <mxCell id="RclfrdzI75yDJteYUR1--6" value="Collection of records&amp;nbsp;" style="text;html=1;strokeColor=none;fillColor=none;align=center;verticalAlign=middle;whiteSpace=wrap;rounded=0;shadow=1;fontSize=16;fontStyle=2" parent="RclfrdzI75yDJteYUR1--1" vertex="1">
          <mxGeometry x="425" y="442.5" width="130" height="44.5" as="geometry" />
        </mxCell>
        <mxCell id="_pm9emHuRLpBBpYyaFof-0" value="Database" style="rounded=0;whiteSpace=wrap;html=1;shadow=1;fontSize=22;fillColor=#d5e8d4;strokeColor=#82b366;" parent="RclfrdzI75yDJteYUR1--1" vertex="1">
          <mxGeometry x="580" y="370" width="424" height="30" as="geometry" />
        </mxCell>
        <mxCell id="_pm9emHuRLpBBpYyaFof-1" value="" style="rounded=0;whiteSpace=wrap;html=1;shadow=1;fontSize=22;fillColor=#d5e8d4;strokeColor=#82b366;" parent="RclfrdzI75yDJteYUR1--1" vertex="1">
          <mxGeometry x="580" y="400" width="424" height="130" as="geometry" />
        </mxCell>
        <mxCell id="_pm9emHuRLpBBpYyaFof-2" value="cities" style="rounded=0;whiteSpace=wrap;html=1;shadow=1;fontSize=20;fillColor=#ffe6cc;strokeColor=#d79b00;" parent="RclfrdzI75yDJteYUR1--1" vertex="1">
          <mxGeometry x="590" y="410" width="400" height="25" as="geometry" />
        </mxCell>
        <mxCell id="_pm9emHuRLpBBpYyaFof-8" value="List of cities should go here" style="rounded=0;whiteSpace=wrap;html=1;shadow=1;fontSize=12;fillColor=#f5f5f5;strokeColor=#666666;fontColor=#333333;fontStyle=2" parent="RclfrdzI75yDJteYUR1--1" vertex="1">
          <mxGeometry x="590" y="435" width="400" height="80" as="geometry" />
        </mxCell>
        <mxCell id="RclfrdzI75yDJteYUR1--4" style="edgeStyle=orthogonalEdgeStyle;rounded=0;orthogonalLoop=1;jettySize=auto;html=1;exitX=1;exitY=0.5;exitDx=0;exitDy=0;fontSize=29;" parent="RclfrdzI75yDJteYUR1--1" source="RclfrdzI75yDJteYUR1--5" edge="1">
          <mxGeometry relative="1" as="geometry">
            <mxPoint x="590" y="422.5" as="targetPoint" />
          </mxGeometry>
        </mxCell>
      </root>
    </mxGraphModel>
  </diagram>
  <diagram id="CoWiccBGE2q5kXtFLdsm" name="10 - rows">
    <mxGraphModel dx="782" dy="721" grid="1" gridSize="10" guides="1" tooltips="1" connect="1" arrows="1" fold="1" page="1" pageScale="1" pageWidth="1920" pageHeight="1200" math="0" shadow="0">
      <root>
        <mxCell id="q5nYgTTml2oEmbb9-Ply-0" />
        <mxCell id="q5nYgTTml2oEmbb9-Ply-1" parent="q5nYgTTml2oEmbb9-Ply-0" />
        <mxCell id="MGyiEPeak_SWnnBaLa2m-0" value="Rows" style="rounded=0;whiteSpace=wrap;html=1;shadow=1;strokeWidth=1;fontSize=28;align=center;fillColor=#f8cecc;strokeColor=#b85450;fontStyle=1" parent="q5nYgTTml2oEmbb9-Ply-1" vertex="1">
          <mxGeometry x="424.5" y="511.25" width="105" height="52.5" as="geometry" />
        </mxCell>
        <mxCell id="MGyiEPeak_SWnnBaLa2m-1" value="Each row represents one city" style="text;html=1;strokeColor=none;fillColor=none;align=center;verticalAlign=middle;whiteSpace=wrap;rounded=0;shadow=1;fontSize=16;fontStyle=2" parent="q5nYgTTml2oEmbb9-Ply-1" vertex="1">
          <mxGeometry x="423" y="571" width="108" height="52" as="geometry" />
        </mxCell>
        <mxCell id="MGyiEPeak_SWnnBaLa2m-2" value="Database" style="rounded=0;whiteSpace=wrap;html=1;shadow=1;fontSize=22;fillColor=#d5e8d4;strokeColor=#82b366;" parent="q5nYgTTml2oEmbb9-Ply-1" vertex="1">
          <mxGeometry x="586" y="410" width="364" height="30" as="geometry" />
        </mxCell>
        <mxCell id="MGyiEPeak_SWnnBaLa2m-3" value="" style="rounded=0;whiteSpace=wrap;html=1;shadow=1;fontSize=22;fillColor=#d5e8d4;strokeColor=#82b366;" parent="q5nYgTTml2oEmbb9-Ply-1" vertex="1">
          <mxGeometry x="586" y="440" width="364" height="150" as="geometry" />
        </mxCell>
        <mxCell id="MGyiEPeak_SWnnBaLa2m-33" value="" style="shape=curlyBracket;whiteSpace=wrap;html=1;rounded=1;shadow=0;fontSize=12;align=left;rotation=0;fontStyle=1;strokeWidth=3;" parent="q5nYgTTml2oEmbb9-Ply-1" vertex="1">
          <mxGeometry x="525.5" y="501" width="66" height="75" as="geometry" />
        </mxCell>
        <mxCell id="1GTChKlN_KfIuB6K81B0-0" value="cities" style="rounded=0;whiteSpace=wrap;html=1;shadow=1;fontSize=20;fillColor=#ffe6cc;strokeColor=#d79b00;" parent="q5nYgTTml2oEmbb9-Ply-1" vertex="1">
          <mxGeometry x="591.5" y="451" width="350" height="25" as="geometry" />
        </mxCell>
        <mxCell id="1GTChKlN_KfIuB6K81B0-2" value="name" style="rounded=0;whiteSpace=wrap;html=1;shadow=1;fontSize=12;fillColor=#f5f5f5;strokeColor=#666666;fontColor=#333333;fontStyle=2" parent="q5nYgTTml2oEmbb9-Ply-1" vertex="1">
          <mxGeometry x="591.5" y="476" width="80" height="25" as="geometry" />
        </mxCell>
        <mxCell id="1GTChKlN_KfIuB6K81B0-3" value="country" style="rounded=0;whiteSpace=wrap;html=1;shadow=1;fontSize=12;fillColor=#f5f5f5;strokeColor=#666666;fontColor=#333333;fontStyle=2" parent="q5nYgTTml2oEmbb9-Ply-1" vertex="1">
          <mxGeometry x="671.5" y="476" width="80" height="25" as="geometry" />
        </mxCell>
        <mxCell id="1GTChKlN_KfIuB6K81B0-4" value="population" style="rounded=0;whiteSpace=wrap;html=1;shadow=1;fontSize=12;fillColor=#f5f5f5;strokeColor=#666666;fontColor=#333333;fontStyle=2" parent="q5nYgTTml2oEmbb9-Ply-1" vertex="1">
          <mxGeometry x="751.5" y="476" width="80" height="25" as="geometry" />
        </mxCell>
        <mxCell id="1GTChKlN_KfIuB6K81B0-5" value="area" style="rounded=0;whiteSpace=wrap;html=1;shadow=1;fontSize=12;fillColor=#f5f5f5;strokeColor=#666666;fontColor=#333333;fontStyle=2" parent="q5nYgTTml2oEmbb9-Ply-1" vertex="1">
          <mxGeometry x="831.5" y="476" width="110" height="25" as="geometry" />
        </mxCell>
        <mxCell id="1GTChKlN_KfIuB6K81B0-8" value="Tokyo" style="rounded=0;whiteSpace=wrap;html=1;shadow=1;fontSize=12;fontStyle=0" parent="q5nYgTTml2oEmbb9-Ply-1" vertex="1">
          <mxGeometry x="591.5" y="501" width="80" height="25" as="geometry" />
        </mxCell>
        <mxCell id="1GTChKlN_KfIuB6K81B0-9" value="Japan" style="rounded=0;whiteSpace=wrap;html=1;shadow=1;fontSize=12;fontStyle=0" parent="q5nYgTTml2oEmbb9-Ply-1" vertex="1">
          <mxGeometry x="671.5" y="501" width="80" height="25" as="geometry" />
        </mxCell>
        <mxCell id="1GTChKlN_KfIuB6K81B0-10" value="37400068" style="rounded=0;whiteSpace=wrap;html=1;shadow=1;fontSize=12;fontStyle=0" parent="q5nYgTTml2oEmbb9-Ply-1" vertex="1">
          <mxGeometry x="751.5" y="501" width="80" height="25" as="geometry" />
        </mxCell>
        <mxCell id="1GTChKlN_KfIuB6K81B0-11" value="8223" style="rounded=0;whiteSpace=wrap;html=1;shadow=1;fontSize=12;fontStyle=0" parent="q5nYgTTml2oEmbb9-Ply-1" vertex="1">
          <mxGeometry x="831.5" y="501" width="110" height="25" as="geometry" />
        </mxCell>
        <mxCell id="1GTChKlN_KfIuB6K81B0-13" value="Delhi" style="rounded=0;whiteSpace=wrap;html=1;shadow=1;fontSize=12;fontStyle=0" parent="q5nYgTTml2oEmbb9-Ply-1" vertex="1">
          <mxGeometry x="591.5" y="526" width="80" height="25" as="geometry" />
        </mxCell>
        <mxCell id="1GTChKlN_KfIuB6K81B0-14" value="India" style="rounded=0;whiteSpace=wrap;html=1;shadow=1;fontSize=12;fontStyle=0" parent="q5nYgTTml2oEmbb9-Ply-1" vertex="1">
          <mxGeometry x="671.5" y="526" width="80" height="25" as="geometry" />
        </mxCell>
        <mxCell id="1GTChKlN_KfIuB6K81B0-15" value="28514000" style="rounded=0;whiteSpace=wrap;html=1;shadow=1;fontSize=12;fontStyle=0" parent="q5nYgTTml2oEmbb9-Ply-1" vertex="1">
          <mxGeometry x="751.5" y="526" width="80" height="25" as="geometry" />
        </mxCell>
        <mxCell id="1GTChKlN_KfIuB6K81B0-16" value="2240" style="rounded=0;whiteSpace=wrap;html=1;shadow=1;fontSize=12;fontStyle=0" parent="q5nYgTTml2oEmbb9-Ply-1" vertex="1">
          <mxGeometry x="831.5" y="526" width="110" height="25" as="geometry" />
        </mxCell>
        <mxCell id="1GTChKlN_KfIuB6K81B0-18" value="Shanghai" style="rounded=0;whiteSpace=wrap;html=1;shadow=1;fontSize=12;fontStyle=0" parent="q5nYgTTml2oEmbb9-Ply-1" vertex="1">
          <mxGeometry x="591.5" y="551" width="80" height="25" as="geometry" />
        </mxCell>
        <mxCell id="1GTChKlN_KfIuB6K81B0-19" value="China" style="rounded=0;whiteSpace=wrap;html=1;shadow=1;fontSize=12;fontStyle=0" parent="q5nYgTTml2oEmbb9-Ply-1" vertex="1">
          <mxGeometry x="671.5" y="551" width="80" height="25" as="geometry" />
        </mxCell>
        <mxCell id="1GTChKlN_KfIuB6K81B0-20" value="25528000" style="rounded=0;whiteSpace=wrap;html=1;shadow=1;fontSize=12;fontStyle=0" parent="q5nYgTTml2oEmbb9-Ply-1" vertex="1">
          <mxGeometry x="751.5" y="551" width="80" height="25" as="geometry" />
        </mxCell>
        <mxCell id="1GTChKlN_KfIuB6K81B0-21" value="4015" style="rounded=0;whiteSpace=wrap;html=1;shadow=1;fontSize=12;fontStyle=0" parent="q5nYgTTml2oEmbb9-Ply-1" vertex="1">
          <mxGeometry x="831.5" y="551" width="110" height="25" as="geometry" />
        </mxCell>
      </root>
    </mxGraphModel>
  </diagram>
  <diagram id="Tc0t4UdOwTzDRUWyn0ZG" name="11 - columns">
    <mxGraphModel dx="782" dy="721" grid="1" gridSize="10" guides="1" tooltips="1" connect="1" arrows="1" fold="1" page="1" pageScale="1" pageWidth="1920" pageHeight="1200" math="0" shadow="0">
      <root>
        <mxCell id="ILGSJuDPYcIX1ODhPGiY-0" />
        <mxCell id="ILGSJuDPYcIX1ODhPGiY-1" parent="ILGSJuDPYcIX1ODhPGiY-0" />
        <mxCell id="ILGSJuDPYcIX1ODhPGiY-2" value="Columns" style="rounded=0;whiteSpace=wrap;html=1;shadow=1;strokeWidth=1;fontSize=18;align=center;fillColor=#f8cecc;strokeColor=#b85450;fontStyle=1" parent="ILGSJuDPYcIX1ODhPGiY-1" vertex="1">
          <mxGeometry x="470" y="471.25" width="92" height="32.5" as="geometry" />
        </mxCell>
        <mxCell id="ILGSJuDPYcIX1ODhPGiY-3" value="Each column records one property about a thing" style="text;html=1;strokeColor=none;fillColor=none;align=center;verticalAlign=middle;whiteSpace=wrap;rounded=0;shadow=1;fontSize=13;fontStyle=2" parent="ILGSJuDPYcIX1ODhPGiY-1" vertex="1">
          <mxGeometry x="461.75" y="515" width="108.5" height="50" as="geometry" />
        </mxCell>
        <mxCell id="ILGSJuDPYcIX1ODhPGiY-4" value="Database" style="rounded=0;whiteSpace=wrap;html=1;shadow=1;fontSize=22;fillColor=#d5e8d4;strokeColor=#82b366;" parent="ILGSJuDPYcIX1ODhPGiY-1" vertex="1">
          <mxGeometry x="586" y="410" width="374" height="30" as="geometry" />
        </mxCell>
        <mxCell id="ILGSJuDPYcIX1ODhPGiY-5" value="" style="rounded=0;whiteSpace=wrap;html=1;shadow=1;fontSize=22;fillColor=#d5e8d4;strokeColor=#82b366;" parent="ILGSJuDPYcIX1ODhPGiY-1" vertex="1">
          <mxGeometry x="586" y="440" width="374" height="150" as="geometry" />
        </mxCell>
        <mxCell id="ILGSJuDPYcIX1ODhPGiY-6" value="cities" style="rounded=0;whiteSpace=wrap;html=1;shadow=1;fontSize=20;fillColor=#ffe6cc;strokeColor=#d79b00;" parent="ILGSJuDPYcIX1ODhPGiY-1" vertex="1">
          <mxGeometry x="600" y="450" width="350" height="25" as="geometry" />
        </mxCell>
        <mxCell id="ILGSJuDPYcIX1ODhPGiY-11" value="name" style="rounded=0;whiteSpace=wrap;html=1;shadow=1;fontSize=12;fillColor=#f5f5f5;strokeColor=#666666;fontColor=#333333;fontStyle=2" parent="ILGSJuDPYcIX1ODhPGiY-1" vertex="1">
          <mxGeometry x="600" y="475" width="80" height="25" as="geometry" />
        </mxCell>
        <mxCell id="ILGSJuDPYcIX1ODhPGiY-15" value="country" style="rounded=0;whiteSpace=wrap;html=1;shadow=1;fontSize=12;fillColor=#f5f5f5;strokeColor=#666666;fontColor=#333333;fontStyle=2" parent="ILGSJuDPYcIX1ODhPGiY-1" vertex="1">
          <mxGeometry x="680" y="475" width="80" height="25" as="geometry" />
        </mxCell>
        <mxCell id="ILGSJuDPYcIX1ODhPGiY-19" value="population" style="rounded=0;whiteSpace=wrap;html=1;shadow=1;fontSize=12;fillColor=#f5f5f5;strokeColor=#666666;fontColor=#333333;fontStyle=2" parent="ILGSJuDPYcIX1ODhPGiY-1" vertex="1">
          <mxGeometry x="760" y="475" width="80" height="25" as="geometry" />
        </mxCell>
        <mxCell id="ILGSJuDPYcIX1ODhPGiY-23" value="area" style="rounded=0;whiteSpace=wrap;html=1;shadow=1;fontSize=12;fillColor=#f5f5f5;strokeColor=#666666;fontColor=#333333;fontStyle=2" parent="ILGSJuDPYcIX1ODhPGiY-1" vertex="1">
          <mxGeometry x="840" y="475" width="110" height="25" as="geometry" />
        </mxCell>
        <mxCell id="ILGSJuDPYcIX1ODhPGiY-35" value="" style="shape=curlyBracket;whiteSpace=wrap;html=1;rounded=1;shadow=0;fontSize=12;align=left;rotation=0;fontStyle=1;strokeWidth=3;" parent="ILGSJuDPYcIX1ODhPGiY-1" vertex="1">
          <mxGeometry x="562" y="476" width="30" height="25" as="geometry" />
        </mxCell>
        <mxCell id="2TGJSnmPe3RZWkvh9J-z-0" value="List of cities should go here" style="rounded=0;whiteSpace=wrap;html=1;shadow=1;fontSize=12;fillColor=#f5f5f5;strokeColor=#666666;fontColor=#333333;fontStyle=2" parent="ILGSJuDPYcIX1ODhPGiY-1" vertex="1">
          <mxGeometry x="600" y="500" width="350" height="80" as="geometry" />
        </mxCell>
      </root>
    </mxGraphModel>
  </diagram>
  <diagram id="8ypmgwirVeKWaig_Y7hC" name="13 - link">
    <mxGraphModel dx="668" dy="412" grid="1" gridSize="10" guides="1" tooltips="1" connect="1" arrows="1" fold="1" page="1" pageScale="1" pageWidth="1920" pageHeight="1200" math="0" shadow="0">
      <root>
        <mxCell id="HY-cOx1OT7HPdkzg4PBg-0" />
        <mxCell id="HY-cOx1OT7HPdkzg4PBg-1" parent="HY-cOx1OT7HPdkzg4PBg-0" />
        <mxCell id="cJjTS9JF_cP_EOm5-nKN-0" value="en.wikipedia.org/wiki/List_of_largest_cities" style="rounded=0;whiteSpace=wrap;html=1;shadow=1;fontSize=23;fillColor=#f8cecc;strokeColor=#b85450;fontStyle=1" parent="HY-cOx1OT7HPdkzg4PBg-1" vertex="1">
          <mxGeometry x="500" y="390" width="550" height="80" as="geometry" />
        </mxCell>
        <mxCell id="cJjTS9JF_cP_EOm5-nKN-1" value="&lt;i&gt;Let&#39;s store a list of large cities in a database&lt;/i&gt;" style="text;html=1;strokeColor=none;fillColor=none;align=center;verticalAlign=middle;whiteSpace=wrap;rounded=0;shadow=1;fontSize=23;" parent="HY-cOx1OT7HPdkzg4PBg-1" vertex="1">
          <mxGeometry x="640" y="480" width="270" height="50" as="geometry" />
        </mxCell>
      </root>
    </mxGraphModel>
  </diagram>
  <diagram id="jUECBC7ocdepyR7d8xM-" name="14 - process">
    <mxGraphModel dx="626" dy="386" grid="1" gridSize="10" guides="1" tooltips="1" connect="1" arrows="1" fold="1" page="1" pageScale="1" pageWidth="1920" pageHeight="1200" math="0" shadow="0">
      <root>
        <mxCell id="iBLXBIUeH9o2TuF3jA9T-0" />
        <mxCell id="iBLXBIUeH9o2TuF3jA9T-1" parent="iBLXBIUeH9o2TuF3jA9T-0" />
        <mxCell id="fkrDuKorHkMGH_HVcrer-0" value="What kind of &lt;i style=&quot;font-size: 20px;&quot;&gt;thing&lt;/i&gt;&amp;nbsp;are we storing?" style="rounded=0;whiteSpace=wrap;html=1;shadow=1;fontSize=20;" parent="iBLXBIUeH9o2TuF3jA9T-1" vertex="1">
          <mxGeometry x="660" y="290" width="410" height="50" as="geometry" />
        </mxCell>
        <mxCell id="fkrDuKorHkMGH_HVcrer-1" value="" style="endArrow=classic;html=1;strokeWidth=3;fontSize=23;" parent="iBLXBIUeH9o2TuF3jA9T-1" edge="1">
          <mxGeometry width="50" height="50" relative="1" as="geometry">
            <mxPoint x="650" y="290" as="sourcePoint" />
            <mxPoint x="650" y="460" as="targetPoint" />
          </mxGeometry>
        </mxCell>
        <mxCell id="fkrDuKorHkMGH_HVcrer-2" value="What properties does this thing have?" style="rounded=0;whiteSpace=wrap;html=1;shadow=1;fontSize=20;" parent="iBLXBIUeH9o2TuF3jA9T-1" vertex="1">
          <mxGeometry x="660" y="350" width="410" height="50" as="geometry" />
        </mxCell>
        <mxCell id="fkrDuKorHkMGH_HVcrer-3" value="What &lt;i&gt;type&lt;/i&gt;&amp;nbsp;of data does each of those properties contain?" style="rounded=0;whiteSpace=wrap;html=1;shadow=1;fontSize=20;" parent="iBLXBIUeH9o2TuF3jA9T-1" vertex="1">
          <mxGeometry x="660" y="410" width="410" height="50" as="geometry" />
        </mxCell>
        <mxCell id="fkrDuKorHkMGH_HVcrer-4" value="Database Design Process" style="text;html=1;strokeColor=none;fillColor=none;align=center;verticalAlign=middle;whiteSpace=wrap;rounded=0;shadow=1;fontSize=23;fontStyle=1" parent="iBLXBIUeH9o2TuF3jA9T-1" vertex="1">
          <mxGeometry x="707.5" y="260" width="315" height="20" as="geometry" />
        </mxCell>
      </root>
    </mxGraphModel>
  </diagram>
  <diagram name="15 - process" id="q2yj4iAgC8VosunOE2I0">
    <mxGraphModel dx="751" dy="463" grid="1" gridSize="10" guides="1" tooltips="1" connect="1" arrows="1" fold="1" page="1" pageScale="1" pageWidth="1920" pageHeight="1200" math="0" shadow="0">
      <root>
        <mxCell id="iC-_n_sF_lNyAfsji1wO-0" />
        <mxCell id="iC-_n_sF_lNyAfsji1wO-1" parent="iC-_n_sF_lNyAfsji1wO-0" />
        <mxCell id="M6c7Q6jAG5pYd9lV1dVk-0" style="edgeStyle=orthogonalEdgeStyle;rounded=0;orthogonalLoop=1;jettySize=auto;html=1;exitX=1;exitY=0.5;exitDx=0;exitDy=0;strokeWidth=3;fontSize=20;" parent="iC-_n_sF_lNyAfsji1wO-1" source="M6c7Q6jAG5pYd9lV1dVk-1" edge="1">
          <mxGeometry relative="1" as="geometry">
            <mxPoint x="930" y="330" as="targetPoint" />
          </mxGeometry>
        </mxCell>
        <mxCell id="M6c7Q6jAG5pYd9lV1dVk-1" value="What kind of &lt;i style=&quot;font-size: 20px;&quot;&gt;thing&lt;/i&gt;&amp;nbsp;are we storing?" style="rounded=0;whiteSpace=wrap;html=1;shadow=1;fontSize=20;" parent="iC-_n_sF_lNyAfsji1wO-1" vertex="1">
          <mxGeometry x="660" y="290" width="230" height="80" as="geometry" />
        </mxCell>
        <mxCell id="M6c7Q6jAG5pYd9lV1dVk-2" value="" style="endArrow=classic;html=1;strokeWidth=3;fontSize=23;" parent="iC-_n_sF_lNyAfsji1wO-1" edge="1">
          <mxGeometry width="50" height="50" relative="1" as="geometry">
            <mxPoint x="650.0000000000002" y="290" as="sourcePoint" />
            <mxPoint x="650.0000000000002" y="550" as="targetPoint" />
          </mxGeometry>
        </mxCell>
        <mxCell id="M6c7Q6jAG5pYd9lV1dVk-3" style="edgeStyle=orthogonalEdgeStyle;rounded=0;orthogonalLoop=1;jettySize=auto;html=1;exitX=1;exitY=0.5;exitDx=0;exitDy=0;strokeWidth=3;fontSize=20;" parent="iC-_n_sF_lNyAfsji1wO-1" source="M6c7Q6jAG5pYd9lV1dVk-4" edge="1">
          <mxGeometry relative="1" as="geometry">
            <mxPoint x="930" y="420" as="targetPoint" />
          </mxGeometry>
        </mxCell>
        <mxCell id="M6c7Q6jAG5pYd9lV1dVk-4" value="What properties does this thing have?" style="rounded=0;whiteSpace=wrap;html=1;shadow=1;fontSize=20;" parent="iC-_n_sF_lNyAfsji1wO-1" vertex="1">
          <mxGeometry x="660" y="380" width="230" height="80" as="geometry" />
        </mxCell>
        <mxCell id="M6c7Q6jAG5pYd9lV1dVk-5" style="edgeStyle=orthogonalEdgeStyle;rounded=0;orthogonalLoop=1;jettySize=auto;html=1;exitX=1;exitY=0.5;exitDx=0;exitDy=0;strokeWidth=3;fontSize=20;" parent="iC-_n_sF_lNyAfsji1wO-1" source="M6c7Q6jAG5pYd9lV1dVk-6" edge="1">
          <mxGeometry relative="1" as="geometry">
            <mxPoint x="930" y="510.0000000000001" as="targetPoint" />
          </mxGeometry>
        </mxCell>
        <mxCell id="M6c7Q6jAG5pYd9lV1dVk-6" value="What &lt;i&gt;type&lt;/i&gt;&amp;nbsp;of data does each of those properties contain?" style="rounded=0;whiteSpace=wrap;html=1;shadow=1;fontSize=20;" parent="iC-_n_sF_lNyAfsji1wO-1" vertex="1">
          <mxGeometry x="660" y="470" width="230" height="80" as="geometry" />
        </mxCell>
        <mxCell id="M6c7Q6jAG5pYd9lV1dVk-7" value="Database Design Process" style="text;html=1;strokeColor=none;fillColor=none;align=center;verticalAlign=middle;whiteSpace=wrap;rounded=0;shadow=1;fontSize=23;fontStyle=1" parent="iC-_n_sF_lNyAfsji1wO-1" vertex="1">
          <mxGeometry x="760" y="260" width="290" height="20" as="geometry" />
        </mxCell>
        <mxCell id="zVVw4i_Z3MynyCtTAzjw-0" value="We are storing a list of &lt;b&gt;&lt;i&gt;cities&lt;/i&gt;&lt;/b&gt;" style="rounded=0;whiteSpace=wrap;html=1;shadow=1;fontSize=20;fillColor=#d5e8d4;strokeColor=#82b366;" parent="iC-_n_sF_lNyAfsji1wO-1" vertex="1">
          <mxGeometry x="930" y="290" width="230" height="80" as="geometry" />
        </mxCell>
        <mxCell id="zVVw4i_Z3MynyCtTAzjw-1" value="Each city has a &lt;b&gt;&lt;i&gt;name, country, population, and area&lt;/i&gt;&lt;/b&gt;" style="rounded=0;whiteSpace=wrap;html=1;shadow=1;fontSize=20;fillColor=#d5e8d4;strokeColor=#82b366;" parent="iC-_n_sF_lNyAfsji1wO-1" vertex="1">
          <mxGeometry x="930" y="380" width="230" height="80" as="geometry" />
        </mxCell>
        <mxCell id="zVVw4i_Z3MynyCtTAzjw-2" value="" style="rounded=0;whiteSpace=wrap;html=1;shadow=1;fontSize=17;fillColor=#d5e8d4;strokeColor=#82b366;" parent="iC-_n_sF_lNyAfsji1wO-1" vertex="1">
          <mxGeometry x="930" y="470" width="230" height="80" as="geometry" />
        </mxCell>
        <mxCell id="zVVw4i_Z3MynyCtTAzjw-3" style="edgeStyle=orthogonalEdgeStyle;rounded=0;orthogonalLoop=1;jettySize=auto;html=1;exitX=1;exitY=0.5;exitDx=0;exitDy=0;strokeWidth=1;fontSize=12;" parent="iC-_n_sF_lNyAfsji1wO-1" source="zVVw4i_Z3MynyCtTAzjw-4" target="zVVw4i_Z3MynyCtTAzjw-11" edge="1">
          <mxGeometry relative="1" as="geometry" />
        </mxCell>
        <mxCell id="zVVw4i_Z3MynyCtTAzjw-4" value="name" style="rounded=0;whiteSpace=wrap;html=1;shadow=0;fontSize=12;" parent="iC-_n_sF_lNyAfsji1wO-1" vertex="1">
          <mxGeometry x="940" y="474" width="86" height="18" as="geometry" />
        </mxCell>
        <mxCell id="zVVw4i_Z3MynyCtTAzjw-5" style="edgeStyle=orthogonalEdgeStyle;rounded=0;orthogonalLoop=1;jettySize=auto;html=1;exitX=1;exitY=0.5;exitDx=0;exitDy=0;strokeWidth=1;fontSize=12;" parent="iC-_n_sF_lNyAfsji1wO-1" source="zVVw4i_Z3MynyCtTAzjw-6" target="zVVw4i_Z3MynyCtTAzjw-12" edge="1">
          <mxGeometry relative="1" as="geometry" />
        </mxCell>
        <mxCell id="zVVw4i_Z3MynyCtTAzjw-6" value="country" style="rounded=0;whiteSpace=wrap;html=1;shadow=0;fontSize=12;" parent="iC-_n_sF_lNyAfsji1wO-1" vertex="1">
          <mxGeometry x="940" y="492" width="86" height="18" as="geometry" />
        </mxCell>
        <mxCell id="zVVw4i_Z3MynyCtTAzjw-7" style="edgeStyle=orthogonalEdgeStyle;rounded=0;orthogonalLoop=1;jettySize=auto;html=1;exitX=1;exitY=0.5;exitDx=0;exitDy=0;strokeWidth=1;fontSize=12;" parent="iC-_n_sF_lNyAfsji1wO-1" source="zVVw4i_Z3MynyCtTAzjw-8" target="zVVw4i_Z3MynyCtTAzjw-13" edge="1">
          <mxGeometry relative="1" as="geometry" />
        </mxCell>
        <mxCell id="zVVw4i_Z3MynyCtTAzjw-8" value="population" style="rounded=0;whiteSpace=wrap;html=1;shadow=0;fontSize=12;" parent="iC-_n_sF_lNyAfsji1wO-1" vertex="1">
          <mxGeometry x="940" y="510" width="86" height="18" as="geometry" />
        </mxCell>
        <mxCell id="zVVw4i_Z3MynyCtTAzjw-9" style="edgeStyle=orthogonalEdgeStyle;rounded=0;orthogonalLoop=1;jettySize=auto;html=1;exitX=1;exitY=0.5;exitDx=0;exitDy=0;strokeWidth=1;fontSize=12;" parent="iC-_n_sF_lNyAfsji1wO-1" source="zVVw4i_Z3MynyCtTAzjw-10" target="zVVw4i_Z3MynyCtTAzjw-14" edge="1">
          <mxGeometry relative="1" as="geometry" />
        </mxCell>
        <mxCell id="zVVw4i_Z3MynyCtTAzjw-10" value="area" style="rounded=0;whiteSpace=wrap;html=1;shadow=0;fontSize=12;" parent="iC-_n_sF_lNyAfsji1wO-1" vertex="1">
          <mxGeometry x="940" y="528" width="86" height="18" as="geometry" />
        </mxCell>
        <mxCell id="zVVw4i_Z3MynyCtTAzjw-11" value="string" style="rounded=0;whiteSpace=wrap;html=1;shadow=0;fontSize=12;" parent="iC-_n_sF_lNyAfsji1wO-1" vertex="1">
          <mxGeometry x="1060" y="474" width="86" height="18" as="geometry" />
        </mxCell>
        <mxCell id="zVVw4i_Z3MynyCtTAzjw-12" value="string" style="rounded=0;whiteSpace=wrap;html=1;shadow=0;fontSize=12;" parent="iC-_n_sF_lNyAfsji1wO-1" vertex="1">
          <mxGeometry x="1060" y="492" width="86" height="18" as="geometry" />
        </mxCell>
        <mxCell id="zVVw4i_Z3MynyCtTAzjw-13" value="number" style="rounded=0;whiteSpace=wrap;html=1;shadow=0;fontSize=12;" parent="iC-_n_sF_lNyAfsji1wO-1" vertex="1">
          <mxGeometry x="1060" y="510" width="86" height="18" as="geometry" />
        </mxCell>
        <mxCell id="zVVw4i_Z3MynyCtTAzjw-14" value="number" style="rounded=0;whiteSpace=wrap;html=1;shadow=0;fontSize=12;" parent="iC-_n_sF_lNyAfsji1wO-1" vertex="1">
          <mxGeometry x="1060" y="528" width="86" height="18" as="geometry" />
        </mxCell>
      </root>
    </mxGraphModel>
  </diagram>
  <diagram name="16 - process" id="kVznwKxqF9rd3LQYQjFl">
    <mxGraphModel dx="791" dy="487" grid="1" gridSize="10" guides="1" tooltips="1" connect="1" arrows="1" fold="1" page="1" pageScale="1" pageWidth="1920" pageHeight="1200" math="0" shadow="0">
      <root>
        <mxCell id="SGJ2IzEaybuhkRF01Lfp-0" />
        <mxCell id="SGJ2IzEaybuhkRF01Lfp-1" parent="SGJ2IzEaybuhkRF01Lfp-0" />
        <mxCell id="SGJ2IzEaybuhkRF01Lfp-3" value="What kind of &lt;i style=&quot;font-size: 20px;&quot;&gt;thing&lt;/i&gt;&amp;nbsp;are we storing?" style="rounded=0;whiteSpace=wrap;html=1;shadow=1;fontSize=20;" parent="SGJ2IzEaybuhkRF01Lfp-1" vertex="1">
          <mxGeometry x="660" y="290" width="230" height="80" as="geometry" />
        </mxCell>
        <mxCell id="SGJ2IzEaybuhkRF01Lfp-4" value="" style="endArrow=classic;html=1;strokeWidth=3;fontSize=23;" parent="SGJ2IzEaybuhkRF01Lfp-1" edge="1">
          <mxGeometry width="50" height="50" relative="1" as="geometry">
            <mxPoint x="650" y="290" as="sourcePoint" />
            <mxPoint x="650" y="550" as="targetPoint" />
          </mxGeometry>
        </mxCell>
        <mxCell id="SGJ2IzEaybuhkRF01Lfp-5" value="What properties does this thing have?" style="rounded=0;whiteSpace=wrap;html=1;shadow=1;fontSize=20;" parent="SGJ2IzEaybuhkRF01Lfp-1" vertex="1">
          <mxGeometry x="660" y="380" width="230" height="80" as="geometry" />
        </mxCell>
        <mxCell id="SGJ2IzEaybuhkRF01Lfp-6" value="What &lt;i&gt;type&lt;/i&gt;&amp;nbsp;of data does each of those properties contain?" style="rounded=0;whiteSpace=wrap;html=1;shadow=1;fontSize=20;" parent="SGJ2IzEaybuhkRF01Lfp-1" vertex="1">
          <mxGeometry x="660" y="470" width="230" height="80" as="geometry" />
        </mxCell>
        <mxCell id="SGJ2IzEaybuhkRF01Lfp-7" value="Database Design Process" style="text;html=1;strokeColor=none;fillColor=none;align=center;verticalAlign=middle;whiteSpace=wrap;rounded=0;shadow=1;fontSize=23;fontStyle=1" parent="SGJ2IzEaybuhkRF01Lfp-1" vertex="1">
          <mxGeometry x="819.38" y="260" width="451.25" height="20" as="geometry" />
        </mxCell>
        <mxCell id="SGJ2IzEaybuhkRF01Lfp-14" value="We should create a &lt;b&gt;&lt;i&gt;table&lt;/i&gt;&lt;/b&gt; called &lt;b&gt;&lt;i&gt;&#39;cities&#39;&lt;/i&gt;&lt;/b&gt;" style="rounded=0;whiteSpace=wrap;html=1;shadow=1;fontSize=20;fillColor=#dae8fc;strokeColor=#6c8ebf;" parent="SGJ2IzEaybuhkRF01Lfp-1" vertex="1">
          <mxGeometry x="1190" y="290" width="230" height="80" as="geometry" />
        </mxCell>
        <mxCell id="SGJ2IzEaybuhkRF01Lfp-16" value="The table should have &lt;i style=&quot;font-weight: bold&quot;&gt;columns&lt;/i&gt;&amp;nbsp;of name, country, population, area" style="rounded=0;whiteSpace=wrap;html=1;shadow=1;fontSize=20;fillColor=#dae8fc;strokeColor=#6c8ebf;" parent="SGJ2IzEaybuhkRF01Lfp-1" vertex="1">
          <mxGeometry x="1190" y="380" width="230" height="80" as="geometry" />
        </mxCell>
        <mxCell id="SGJ2IzEaybuhkRF01Lfp-18" value="Each &lt;i style=&quot;font-weight: bold; font-size: 20px;&quot;&gt;column&lt;/i&gt;&amp;nbsp;should indicate the type of data that it is going to store" style="rounded=0;whiteSpace=wrap;html=1;shadow=1;fontSize=20;fillColor=#dae8fc;strokeColor=#6c8ebf;" parent="SGJ2IzEaybuhkRF01Lfp-1" vertex="1">
          <mxGeometry x="1190" y="470" width="230" height="80" as="geometry" />
        </mxCell>
        <mxCell id="Uhn4nKneD_IohbBS__LP-0" style="edgeStyle=orthogonalEdgeStyle;rounded=0;orthogonalLoop=1;jettySize=auto;html=1;exitX=1;exitY=0.5;exitDx=0;exitDy=0;strokeWidth=3;fontSize=20;" parent="SGJ2IzEaybuhkRF01Lfp-1" edge="1">
          <mxGeometry relative="1" as="geometry">
            <mxPoint x="890" y="330" as="sourcePoint" />
            <mxPoint x="930" y="330" as="targetPoint" />
          </mxGeometry>
        </mxCell>
        <mxCell id="Uhn4nKneD_IohbBS__LP-1" style="edgeStyle=orthogonalEdgeStyle;rounded=0;orthogonalLoop=1;jettySize=auto;html=1;exitX=1;exitY=0.5;exitDx=0;exitDy=0;strokeWidth=3;fontSize=20;" parent="SGJ2IzEaybuhkRF01Lfp-1" edge="1">
          <mxGeometry relative="1" as="geometry">
            <mxPoint x="890" y="420" as="sourcePoint" />
            <mxPoint x="930" y="420" as="targetPoint" />
          </mxGeometry>
        </mxCell>
        <mxCell id="Uhn4nKneD_IohbBS__LP-2" style="edgeStyle=orthogonalEdgeStyle;rounded=0;orthogonalLoop=1;jettySize=auto;html=1;exitX=1;exitY=0.5;exitDx=0;exitDy=0;strokeWidth=3;fontSize=20;" parent="SGJ2IzEaybuhkRF01Lfp-1" edge="1">
          <mxGeometry relative="1" as="geometry">
            <mxPoint x="890" y="510.0000000000001" as="sourcePoint" />
            <mxPoint x="930" y="510.0000000000001" as="targetPoint" />
          </mxGeometry>
        </mxCell>
        <mxCell id="Uhn4nKneD_IohbBS__LP-18" style="edgeStyle=orthogonalEdgeStyle;rounded=0;orthogonalLoop=1;jettySize=auto;html=1;exitX=1;exitY=0.5;exitDx=0;exitDy=0;strokeWidth=3;" parent="SGJ2IzEaybuhkRF01Lfp-1" source="Uhn4nKneD_IohbBS__LP-3" target="SGJ2IzEaybuhkRF01Lfp-14" edge="1">
          <mxGeometry relative="1" as="geometry" />
        </mxCell>
        <mxCell id="Uhn4nKneD_IohbBS__LP-3" value="We are storing a list of &lt;b&gt;&lt;i&gt;cities&lt;/i&gt;&lt;/b&gt;" style="rounded=0;whiteSpace=wrap;html=1;shadow=1;fontSize=20;fillColor=#d5e8d4;strokeColor=#82b366;" parent="SGJ2IzEaybuhkRF01Lfp-1" vertex="1">
          <mxGeometry x="930" y="290" width="230" height="80" as="geometry" />
        </mxCell>
        <mxCell id="Uhn4nKneD_IohbBS__LP-19" style="edgeStyle=orthogonalEdgeStyle;rounded=0;orthogonalLoop=1;jettySize=auto;html=1;exitX=1;exitY=0.5;exitDx=0;exitDy=0;strokeWidth=3;" parent="SGJ2IzEaybuhkRF01Lfp-1" source="Uhn4nKneD_IohbBS__LP-4" target="SGJ2IzEaybuhkRF01Lfp-16" edge="1">
          <mxGeometry relative="1" as="geometry" />
        </mxCell>
        <mxCell id="Uhn4nKneD_IohbBS__LP-4" value="Each city has a &lt;b&gt;&lt;i&gt;name, country, population, and area&lt;/i&gt;&lt;/b&gt;" style="rounded=0;whiteSpace=wrap;html=1;shadow=1;fontSize=20;fillColor=#d5e8d4;strokeColor=#82b366;" parent="SGJ2IzEaybuhkRF01Lfp-1" vertex="1">
          <mxGeometry x="930" y="380" width="230" height="80" as="geometry" />
        </mxCell>
        <mxCell id="Uhn4nKneD_IohbBS__LP-20" style="edgeStyle=orthogonalEdgeStyle;rounded=0;orthogonalLoop=1;jettySize=auto;html=1;exitX=1;exitY=0.5;exitDx=0;exitDy=0;entryX=0;entryY=0.5;entryDx=0;entryDy=0;strokeWidth=3;" parent="SGJ2IzEaybuhkRF01Lfp-1" source="Uhn4nKneD_IohbBS__LP-5" target="SGJ2IzEaybuhkRF01Lfp-18" edge="1">
          <mxGeometry relative="1" as="geometry" />
        </mxCell>
        <mxCell id="Uhn4nKneD_IohbBS__LP-5" value="" style="rounded=0;whiteSpace=wrap;html=1;shadow=1;fontSize=17;fillColor=#d5e8d4;strokeColor=#82b366;" parent="SGJ2IzEaybuhkRF01Lfp-1" vertex="1">
          <mxGeometry x="930" y="470" width="230" height="80" as="geometry" />
        </mxCell>
        <mxCell id="Uhn4nKneD_IohbBS__LP-6" style="edgeStyle=orthogonalEdgeStyle;rounded=0;orthogonalLoop=1;jettySize=auto;html=1;exitX=1;exitY=0.5;exitDx=0;exitDy=0;strokeWidth=1;fontSize=12;" parent="SGJ2IzEaybuhkRF01Lfp-1" source="Uhn4nKneD_IohbBS__LP-7" target="Uhn4nKneD_IohbBS__LP-14" edge="1">
          <mxGeometry relative="1" as="geometry" />
        </mxCell>
        <mxCell id="Uhn4nKneD_IohbBS__LP-7" value="name" style="rounded=0;whiteSpace=wrap;html=1;shadow=0;fontSize=12;" parent="SGJ2IzEaybuhkRF01Lfp-1" vertex="1">
          <mxGeometry x="940" y="474" width="86" height="18" as="geometry" />
        </mxCell>
        <mxCell id="Uhn4nKneD_IohbBS__LP-8" style="edgeStyle=orthogonalEdgeStyle;rounded=0;orthogonalLoop=1;jettySize=auto;html=1;exitX=1;exitY=0.5;exitDx=0;exitDy=0;strokeWidth=1;fontSize=12;" parent="SGJ2IzEaybuhkRF01Lfp-1" source="Uhn4nKneD_IohbBS__LP-9" target="Uhn4nKneD_IohbBS__LP-15" edge="1">
          <mxGeometry relative="1" as="geometry" />
        </mxCell>
        <mxCell id="Uhn4nKneD_IohbBS__LP-9" value="country" style="rounded=0;whiteSpace=wrap;html=1;shadow=0;fontSize=12;" parent="SGJ2IzEaybuhkRF01Lfp-1" vertex="1">
          <mxGeometry x="940" y="492" width="86" height="18" as="geometry" />
        </mxCell>
        <mxCell id="Uhn4nKneD_IohbBS__LP-10" style="edgeStyle=orthogonalEdgeStyle;rounded=0;orthogonalLoop=1;jettySize=auto;html=1;exitX=1;exitY=0.5;exitDx=0;exitDy=0;strokeWidth=1;fontSize=12;" parent="SGJ2IzEaybuhkRF01Lfp-1" source="Uhn4nKneD_IohbBS__LP-11" target="Uhn4nKneD_IohbBS__LP-16" edge="1">
          <mxGeometry relative="1" as="geometry" />
        </mxCell>
        <mxCell id="Uhn4nKneD_IohbBS__LP-11" value="population" style="rounded=0;whiteSpace=wrap;html=1;shadow=0;fontSize=12;" parent="SGJ2IzEaybuhkRF01Lfp-1" vertex="1">
          <mxGeometry x="940" y="510" width="86" height="18" as="geometry" />
        </mxCell>
        <mxCell id="Uhn4nKneD_IohbBS__LP-12" style="edgeStyle=orthogonalEdgeStyle;rounded=0;orthogonalLoop=1;jettySize=auto;html=1;exitX=1;exitY=0.5;exitDx=0;exitDy=0;strokeWidth=1;fontSize=12;" parent="SGJ2IzEaybuhkRF01Lfp-1" source="Uhn4nKneD_IohbBS__LP-13" target="Uhn4nKneD_IohbBS__LP-17" edge="1">
          <mxGeometry relative="1" as="geometry" />
        </mxCell>
        <mxCell id="Uhn4nKneD_IohbBS__LP-13" value="area" style="rounded=0;whiteSpace=wrap;html=1;shadow=0;fontSize=12;" parent="SGJ2IzEaybuhkRF01Lfp-1" vertex="1">
          <mxGeometry x="940" y="528" width="86" height="18" as="geometry" />
        </mxCell>
        <mxCell id="Uhn4nKneD_IohbBS__LP-14" value="string" style="rounded=0;whiteSpace=wrap;html=1;shadow=0;fontSize=12;" parent="SGJ2IzEaybuhkRF01Lfp-1" vertex="1">
          <mxGeometry x="1060" y="474" width="86" height="18" as="geometry" />
        </mxCell>
        <mxCell id="Uhn4nKneD_IohbBS__LP-15" value="string" style="rounded=0;whiteSpace=wrap;html=1;shadow=0;fontSize=12;" parent="SGJ2IzEaybuhkRF01Lfp-1" vertex="1">
          <mxGeometry x="1060" y="492" width="86" height="18" as="geometry" />
        </mxCell>
        <mxCell id="Uhn4nKneD_IohbBS__LP-16" value="number" style="rounded=0;whiteSpace=wrap;html=1;shadow=0;fontSize=12;" parent="SGJ2IzEaybuhkRF01Lfp-1" vertex="1">
          <mxGeometry x="1060" y="510" width="86" height="18" as="geometry" />
        </mxCell>
        <mxCell id="Uhn4nKneD_IohbBS__LP-17" value="number" style="rounded=0;whiteSpace=wrap;html=1;shadow=0;fontSize=12;" parent="SGJ2IzEaybuhkRF01Lfp-1" vertex="1">
          <mxGeometry x="1060" y="528" width="86" height="18" as="geometry" />
        </mxCell>
      </root>
    </mxGraphModel>
  </diagram>
</mxfile>
